<svg width="14" height="15" viewBox="0 0 14 15" fill="none" xmlns="http://www.w3.org/2000/svg">
<path d="M7 14.5C6.71667 14.5 6.47933 14.404 6.288 14.212C6.096 14.0207 6 13.7833 6 13.5V8.5H1C0.716667 8.5 0.479 8.404 0.287 8.212C0.0956668 8.02067 0 7.78333 0 7.5C0 7.21667 0.0956668 6.979 0.287 6.787C0.479 6.59567 0.716667 6.5 1 6.5H6V1.5C6 1.21667 6.096 0.979 6.288 0.787C6.47933 0.595667 6.71667 0.5 7 0.5C7.28333 0.5 7.521 0.595667 7.713 0.787C7.90433 0.979 8 1.21667 8 1.5V6.5H13C13.2833 6.5 13.5207 6.59567 13.712 6.787C13.904 6.979 14 7.21667 14 7.5C14 7.78333 13.904 8.02067 13.712 8.212C13.5207 8.404 13.2833 8.5 13 8.5H8V13.5C8 13.7833 7.90433 14.0207 7.713 14.212C7.521 14.404 7.28333 14.5 7 14.5Z" fill="#4E78B8"/>
</svg>
