<svg width="38" height="38" viewBox="0 0 38 38" fill="none" xmlns="http://www.w3.org/2000/svg">
<rect x="0.5" y="0.5" width="37" height="37" rx="9.5" fill="#4E78B8"/>
<path d="M19 27C18.6762 27 18.405 26.8903 18.1863 26.6709C17.9669 26.4522 17.8571 26.181 17.8571 25.8571V20.1429H12.1429C11.819 20.1429 11.5474 20.0331 11.328 19.8137C11.1093 19.595 11 19.3238 11 19C11 18.6762 11.1093 18.4046 11.328 18.1851C11.5474 17.9665 11.819 17.8571 12.1429 17.8571H17.8571V12.1429C17.8571 11.819 17.9669 11.5474 18.1863 11.328C18.405 11.1093 18.6762 11 19 11C19.3238 11 19.5954 11.1093 19.8149 11.328C20.0335 11.5474 20.1429 11.819 20.1429 12.1429V17.8571H25.8571C26.181 17.8571 26.4522 17.9665 26.6709 18.1851C26.8903 18.4046 27 18.6762 27 19C27 19.3238 26.8903 19.595 26.6709 19.8137C26.4522 20.0331 26.181 20.1429 25.8571 20.1429H20.1429V25.8571C20.1429 26.181 20.0335 26.4522 19.8149 26.6709C19.5954 26.8903 19.3238 27 19 27Z" fill="white"/>
<rect x="0.5" y="0.5" width="37" height="37" rx="9.5" stroke="#4E78B8"/>
</svg>
