<svg width="16" height="16" viewBox="0 0 16 16" fill="none" xmlns="http://www.w3.org/2000/svg">
<path d="M14.8571 6.07619H9.71429V1.10476C9.71429 0.494726 9.2025 0 8.57143 0H7.42857C6.7975 0 6.28571 0.494726 6.28571 1.10476V6.07619H1.14286C0.511786 6.07619 0 6.57092 0 7.18095V8.28571C0 8.89575 0.511786 9.39048 1.14286 9.39048H6.28571V14.3619C6.28571 14.9719 6.7975 15.4667 7.42857 15.4667H8.57143C9.2025 15.4667 9.71429 14.9719 9.71429 14.3619V9.39048H14.8571C15.4882 9.39048 16 8.89575 16 8.28571V7.18095C16 6.57092 15.4882 6.07619 14.8571 6.07619Z" fill="#B7C9E2"/>
</svg>
