<svg width="18" height="19" viewBox="0 0 18 19" fill="none" xmlns="http://www.w3.org/2000/svg">
<path d="M2 18.5C1.45 18.5 0.979 18.3043 0.587 17.913C0.195667 17.521 0 17.05 0 16.5V6.5C0 5.95 0.195667 5.479 0.587 5.087C0.979 4.69567 1.45 4.5 2 4.5H4V2.5C4 1.95 4.196 1.479 4.588 1.087C4.97933 0.695667 5.45 0.5 6 0.5H12C12.55 0.5 13.021 0.695667 13.413 1.087C13.8043 1.479 14 1.95 14 2.5V8.5H16C16.55 8.5 17.021 8.69567 17.413 9.087C17.8043 9.479 18 9.95 18 10.5V16.5C18 17.05 17.8043 17.521 17.413 17.913C17.021 18.3043 16.55 18.5 16 18.5H10V14.5H8V18.5H2ZM2 16.5H4V14.5H2V16.5ZM2 12.5H4V10.5H2V12.5ZM2 8.5H4V6.5H2V8.5ZM6 12.5H8V10.5H6V12.5ZM6 8.5H8V6.5H6V8.5ZM6 4.5H8V2.5H6V4.5ZM10 12.5H12V10.5H10V12.5ZM10 8.5H12V6.5H10V8.5ZM10 4.5H12V2.5H10V4.5ZM14 16.5H16V14.5H14V16.5ZM14 12.5H16V10.5H14V12.5Z" fill="#4E78B8"/>
</svg>
