<svg width="26" height="22" viewBox="0 0 26 22" fill="none" xmlns="http://www.w3.org/2000/svg">
<path d="M22.7831 0H2.35687C1.05519 0 0 1.05531 0 2.35714V5.5C0 6.36429 0.707062 7.07143 1.52706 7.07143L1.57125 18.8571C1.57125 20.5931 2.97801 22 4.71375 22H20.4263C22.162 22 23.5687 20.5931 23.5687 18.8571V7.07143C24.4329 7.07143 25.14 6.36429 25.14 5.5442V2.35714C25.14 1.05531 24.0843 0 22.7831 0ZM20.4263 19.6429H4.71375C4.27984 19.6429 3.92812 19.2911 3.92812 18.8571V7.07143H21.2119V18.8571C21.2119 19.2893 20.8583 19.6429 20.4263 19.6429ZM22.7831 4.71429H2.35687V2.35714H22.7831V4.71429ZM8.9905 11.7857H16.0611C16.7584 11.7857 17.2837 11.2603 17.2837 10.6071C17.2837 9.95402 16.7584 9.42857 16.1053 9.42857H8.9905C8.38164 9.42857 7.85625 9.95402 7.85625 10.5629C7.85625 11.2603 8.38164 11.7857 8.9905 11.7857Z" fill="#6B8CBE"/>
</svg>
