<svg width="24" height="23" viewBox="0 0 24 23" fill="none" xmlns="http://www.w3.org/2000/svg">
<path d="M11.83 0.247681L11.5156 0.252001C5.45723 0.418687 0.591682 5.3876 0.591682 11.486C0.591682 17.6783 5.62646 22.7244 11.83 22.7244C18.0223 22.7244 23.0684 17.6783 23.0684 11.486C23.0684 5.28246 18.0223 0.247681 11.83 0.247681ZM9.60483 6.99068C9.94198 6.65353 10.4702 6.65353 10.7961 6.99068L14.7183 10.8904C14.8756 11.0477 14.9655 11.2613 14.9655 11.486C14.9655 11.7108 14.8756 11.9243 14.7183 12.0817L10.7961 15.9814C10.6388 16.1499 10.4252 16.2286 10.2117 16.2286C9.98693 16.2286 9.77341 16.1499 9.60483 15.9814C9.27892 15.6442 9.27892 15.116 9.61607 14.7901L12.9314 11.486L9.61607 8.18195C9.27892 7.85604 9.27892 7.3166 9.60483 6.99068Z" fill="#809CC8"/>
</svg>
