<svg width="24" height="23" viewBox="0 0 24 23" fill="none" xmlns="http://www.w3.org/2000/svg">
<path d="M11.8305 0.247681L11.5161 0.252001C5.45772 0.418687 0.592171 5.3876 0.592171 11.486C0.592171 17.6783 5.62695 22.7244 11.8305 22.7244C18.0228 22.7244 23.0688 17.6783 23.0688 11.486C23.0688 5.28246 18.0228 0.247681 11.8305 0.247681ZM9.60532 6.99068C9.94247 6.65353 10.4707 6.65353 10.7966 6.99068L14.7188 10.8904C14.8761 11.0477 14.966 11.2613 14.966 11.486C14.966 11.7108 14.8761 11.9243 14.7188 12.0817L10.7966 15.9814C10.6392 16.1499 10.4257 16.2286 10.2122 16.2286C9.98742 16.2286 9.77389 16.1499 9.60532 15.9814C9.27941 15.6442 9.27941 15.116 9.61656 14.7901L12.9319 11.486L9.61656 8.18195C9.27941 7.85604 9.27941 7.3166 9.60532 6.99068Z" fill="#D1E0F8"/>
</svg>
