<svg width="120" height="121" viewBox="0 0 120 121" fill="none" xmlns="http://www.w3.org/2000/svg">
<rect y="0.5" width="120" height="120" rx="23" fill="#4E78B8"/>
<path d="M45 34.25V38H39.375C36.2695 38 33.75 40.5195 33.75 43.625V49.25H86.25V43.625C86.25 40.5195 83.7305 38 80.625 38H75V34.25C75 32.1758 73.3242 30.5 71.25 30.5C69.1758 30.5 67.5 32.1758 67.5 34.25V38H52.5V34.25C52.5 32.1758 50.8242 30.5 48.75 30.5C46.6758 30.5 45 32.1758 45 34.25ZM86.25 53H33.75V84.875C33.75 87.9805 36.2695 90.5 39.375 90.5H80.625C83.7305 90.5 86.25 87.9805 86.25 84.875V53Z" fill="white"/>
</svg>
