<svg width="26" height="26" viewBox="0 0 26 26" fill="none" xmlns="http://www.w3.org/2000/svg">
<path d="M25.9594 19.6523L24.7787 24.771C24.6129 25.4947 23.9769 26.0009 23.2319 26.0009C10.4203 25.9999 0 15.5796 0 2.76751C0 2.02306 0.506238 1.38626 1.22992 1.22122L6.34867 0.0405577C7.09414 -0.1322 7.85586 0.254753 8.16562 0.960714L10.528 6.47048C10.8041 7.11946 10.6178 7.8756 10.072 8.32146L7.33789 10.5167C9.06344 14.0318 11.9214 16.8898 15.4375 18.6163L17.6759 15.8843C18.1171 15.3369 18.8789 15.1475 19.5279 15.4285L25.0377 17.7904C25.7004 18.139 26.132 18.9109 25.9594 19.6523Z" fill="white"/>
</svg>
