<svg width="39" height="39" viewBox="0 0 39 39" fill="none" xmlns="http://www.w3.org/2000/svg">
<path d="M0 10C0 4.47715 4.47715 0 10 0H39V19C39 30.0457 30.0457 39 19 39H0V10Z" fill="#F4F6FC"/>
<mask id="mask0_3438_46160" style="mask-type:alpha" maskUnits="userSpaceOnUse" x="6" y="6" width="24" height="24">
<rect x="6" y="6" width="24" height="24" fill="#D9D9D9"/>
</mask>
<g mask="url(#mask0_3438_46160)">
<path d="M17.9995 23.5C19.2495 23.5 20.3122 23.0627 21.1875 22.188C22.0622 21.3127 22.4995 20.25 22.4995 19C22.4995 17.75 22.0622 16.6873 21.1875 15.812C20.3122 14.9373 19.2495 14.5 17.9995 14.5C16.7495 14.5 15.6868 14.9373 14.8115 15.812C13.9368 16.6873 13.4995 17.75 13.4995 19C13.4995 20.25 13.9368 21.3127 14.8115 22.188C15.6868 23.0627 16.7495 23.5 17.9995 23.5ZM9.99951 27C9.44951 27 8.97885 26.8043 8.58751 26.413C8.19551 26.021 7.99951 25.55 7.99951 25V13C7.99951 12.45 8.19551 11.9793 8.58751 11.588C8.97885 11.196 9.44951 11 9.99951 11H13.1495L14.3995 9.65C14.5828 9.43333 14.8035 9.27067 15.0615 9.162C15.3202 9.054 15.5912 9 15.8745 9H20.1245C20.4078 9 20.6788 9.054 20.9375 9.162C21.1955 9.27067 21.4162 9.43333 21.5995 9.65L22.8495 11H25.9995C26.5495 11 27.0205 11.196 27.4125 11.588C27.8038 11.9793 27.9995 12.45 27.9995 13V25C27.9995 25.55 27.8038 26.021 27.4125 26.413C27.0205 26.8043 26.5495 27 25.9995 27H9.99951ZM25.9995 25V13H9.99951V25H25.9995Z" fill="#4E78B8"/>
</g>
</svg>
