<svg width="19" height="18" viewBox="0 0 19 18" fill="none" xmlns="http://www.w3.org/2000/svg">
<path d="M0.912109 9C0.912109 4.02891 4.94102 0 9.91211 0C14.8832 0 18.9121 4.02891 18.9121 9C18.9121 13.9711 14.8832 18 9.91211 18C4.94102 18 0.912109 13.9711 0.912109 9ZM13.9832 7.44609C14.3664 7.06289 14.3664 6.43711 13.9832 6.05391C13.6 5.6707 12.9742 5.6707 12.591 6.05391L8.78711 9.85781L7.2332 8.30391C6.85 7.9207 6.22422 7.9207 5.84102 8.30391C5.45781 8.68711 5.45781 9.31289 5.84102 9.69609L8.09102 11.9461C8.47422 12.3293 9.1 12.3293 9.4832 11.9461L13.9832 7.44609Z" fill="#00CA5E"/>
</svg>
