<svg width="15" height="15" viewBox="0 0 15 15" fill="none" xmlns="http://www.w3.org/2000/svg">
<circle cx="7.5" cy="7.5" r="7.5" fill="#052553"/>
<path d="M9.85275 9.14694C10.048 9.34224 10.048 9.65862 9.85275 9.85392C9.75588 9.95157 9.62776 10 9.49965 10C9.37153 10 9.24373 9.95118 9.14624 9.85353L7.4998 8.20795L5.85353 9.85314C5.75588 9.95157 5.62792 10 5.49996 10C5.372 10 5.2442 9.95157 5.14647 9.85314C4.95118 9.65784 4.95118 9.34146 5.14647 9.14616L6.79322 7.49941L5.14647 5.85345C4.95118 5.65815 4.95118 5.34177 5.14647 5.14647C5.34177 4.95118 5.65815 4.95118 5.85345 5.14647L7.4998 6.794L9.14655 5.14725C9.34185 4.95196 9.65823 4.95196 9.85353 5.14725C10.0488 5.34255 10.0488 5.65893 9.85353 5.85423L8.20678 7.50098L9.85275 9.14694Z" fill="white"/>
</svg>
