<svg width="19" height="18" viewBox="0 0 19 18" fill="none" xmlns="http://www.w3.org/2000/svg">
<path d="M0.912109 9C0.912109 4.02891 4.94102 0 9.91211 0C14.8832 0 18.9121 4.02891 18.9121 9C18.9121 13.9711 14.8832 18 9.91211 18C4.94102 18 0.912109 13.9711 0.912109 9ZM7.06445 7.31602L8.72031 8.96836L7.06445 10.6523C6.7375 10.9828 6.7375 11.5172 7.06445 11.816C7.39492 12.1746 7.9293 12.1746 8.22813 11.816L9.88047 10.1918L11.5645 11.816C11.8949 12.1746 12.4293 12.1746 12.7281 11.816C13.0867 11.5172 13.0867 10.9828 12.7281 10.6523L11.1039 8.96836L12.7281 7.31602C13.0867 7.01719 13.0867 6.48281 12.7281 6.15234C12.4293 5.82539 11.8949 5.82539 11.5645 6.15234L9.88047 7.8082L8.22813 6.15234C7.9293 5.82539 7.39492 5.82539 7.06445 6.15234C6.7375 6.48281 6.7375 7.01719 7.06445 7.31602Z" fill="#E05047"/>
</svg>
