<svg width="20" height="22" viewBox="0 0 20 22" fill="none" xmlns="http://www.w3.org/2000/svg">
<path d="M6.58737 0.760117C6.8174 0.29425 7.29024 0 7.80567 0H12.9345C13.4499 0 13.9227 0.29425 14.1528 0.760117L14.4595 1.375H18.5489C19.3029 1.375 19.912 1.99074 19.912 2.75C19.912 3.50926 19.3029 4.125 18.5489 4.125H2.19126C1.43855 4.125 0.828125 3.50926 0.828125 2.75C0.828125 1.99074 1.43855 1.375 2.19126 1.375H6.28066L6.58737 0.760117ZM17.6458 20.0277C17.5776 21.1535 16.6873 22 15.6054 22H5.13478C4.05492 22 3.16122 21.1535 3.09391 20.0277L2.15292 5.5H18.5489L17.6458 20.0277Z" fill="#E05047"/>
</svg>
