<svg width="19" height="22" viewBox="0 0 19 22" fill="none" xmlns="http://www.w3.org/2000/svg">
<path d="M17.9821 3.4375C18.5462 3.4375 19 3.89941 19 4.46875C19 5.04023 18.5462 5.5 17.9821 5.5H17.4902L16.4723 19.452C16.3663 20.8871 15.1873 22 13.7665 22H5.23348C3.81357 22 2.63328 20.8871 2.5281 19.452L1.50812 5.5H1.01786C0.455915 5.5 0 5.04023 0 4.46875C0 3.89941 0.455915 3.4375 1.01786 3.4375H3.97897L5.5346 1.07164C5.97567 0.402059 6.71786 0 7.51094 0H11.4891C12.2821 0 13.0243 0.402102 13.4654 1.07164L15.0219 3.4375H17.9821ZM7.51094 2.0625C7.40067 2.0625 7.25647 2.12008 7.23103 2.21547L6.42522 3.4375H12.5748L11.769 2.21547C11.7054 2.12008 11.5993 2.0625 11.4891 2.0625H7.51094ZM15.4502 5.5H3.54935L4.55915 19.3016C4.5846 19.6582 4.88147 19.9375 5.23348 19.9375H13.7665C14.1185 19.9375 14.4154 19.6582 14.4408 19.3016L15.4502 5.5Z" fill="#5976A4"/>
</svg>
