<svg width="22" height="22" viewBox="0 0 22 22" fill="none" xmlns="http://www.w3.org/2000/svg">
<path d="M16.0316 1.07298C17.2391 -0.135168 19.1984 -0.135168 20.4059 1.07298L20.9258 1.59377C22.1332 2.80205 22.1332 4.76099 20.9258 5.96841L12.4523 14.4461C12.0785 14.8157 11.6188 15.0864 11.1117 15.2325L6.81484 16.4614C6.45391 16.5645 6.06719 16.4614 5.80078 16.1606C5.53867 15.9329 5.43555 15.5461 5.53867 15.1852L6.76758 10.8883C6.91367 10.3813 7.18438 9.92154 7.55391 9.54771L16.0316 1.07298ZM18.9105 2.53134C18.5453 2.12873 17.8922 2.12873 17.4883 2.53134L16.2379 3.7813L18.2188 5.76216L19.4691 4.4731C19.873 4.10787 19.873 3.45474 19.4691 3.05212L18.9105 2.53134ZM8.75273 11.4555L8.03086 13.9692L10.5445 13.2473C10.7164 13.2001 10.8668 13.1098 10.9914 12.9852L16.7621 7.2188L14.7812 5.23795L9.01484 11.0086C8.89023 11.1333 8.8 11.2836 8.75273 11.4555ZM8.59375 2.75005C9.16523 2.75005 9.625 3.21197 9.625 3.7813C9.625 4.35279 9.16523 4.81255 8.59375 4.81255H3.78125C2.83207 4.81255 2.0625 5.5817 2.0625 6.5313V18.2188C2.0625 19.1684 2.83207 19.9376 3.78125 19.9376H15.4688C16.4184 19.9376 17.1875 19.1684 17.1875 18.2188V13.4063C17.1875 12.8348 17.6473 12.3751 18.2188 12.3751C18.7902 12.3751 19.25 12.8348 19.25 13.4063V18.2188C19.25 20.3071 17.557 22.0001 15.4688 22.0001H3.78125C1.69297 22.0001 0 20.3071 0 18.2188V6.5313C0 4.44302 1.69297 2.75005 3.78125 2.75005H8.59375Z" fill="#5976A4"/>
</svg>
