<svg width="23" height="17" viewBox="0 0 23 17" fill="none" xmlns="http://www.w3.org/2000/svg">
<path d="M20.6896 0C21.8333 0 22.7612 0.923398 22.7612 2.0625C22.7612 2.71133 22.4548 3.32148 21.9325 3.7125L12.5413 10.725C12.0493 11.0902 11.376 11.0902 10.884 10.725L1.4927 3.7125C0.971049 3.32148 0.664062 2.71133 0.664062 2.0625C0.664062 0.923398 1.59154 0 2.73567 0H20.6896ZM10.0553 11.825C11.0394 12.5598 12.3859 12.5598 13.3699 11.825L22.7612 4.8125V13.75C22.7612 15.2668 21.5225 16.5 19.9991 16.5H3.4262C1.90055 16.5 0.664062 15.2668 0.664062 13.75V4.8125L10.0553 11.825Z" fill="#4E78B8"/>
</svg>
