<svg width="35" height="34" viewBox="0 0 35 34" fill="none" xmlns="http://www.w3.org/2000/svg">
<path d="M17.7925 27.2895L17.2765 26.9787L16.7605 27.2895L8.38593 32.3344L8.37542 32.3408L8.36507 32.3473C8.16328 32.4757 7.99206 32.5111 7.82466 32.4971C7.60297 32.4787 7.4369 32.4102 7.29612 32.3008C7.11871 32.1628 6.98114 31.9927 6.87871 31.7782C6.82153 31.6575 6.79167 31.4974 6.84915 31.2476C6.84923 31.2472 6.84931 31.2469 6.84939 31.2466L9.06871 21.7136L9.20571 21.1251L8.74851 20.7301L1.34108 14.3305C1.14285 14.1502 1.05941 13.9859 1.02674 13.8341L1.02675 13.8341L1.02588 13.8302C0.981588 13.6284 0.994125 13.4433 1.06359 13.2522C1.14646 13.0243 1.25804 12.8684 1.38769 12.755C1.46812 12.6846 1.63116 12.5917 1.95581 12.542L11.7135 11.6869L12.3138 11.6343L12.5477 11.079L16.3314 2.09907L16.3329 2.09539C16.4227 1.88002 16.5411 1.75526 16.6883 1.67135L16.6897 1.67053C16.9061 1.54664 17.0975 1.5 17.2765 1.5C17.4553 1.5 17.6477 1.54659 17.8659 1.67087C18.0116 1.75442 18.1299 1.87918 18.22 2.0954L18.2216 2.09907L22.0052 11.079L22.2392 11.6343L22.8395 11.6869L32.5972 12.542C32.9218 12.5917 33.0849 12.6846 33.1653 12.755C33.2949 12.8684 33.4065 13.0243 33.4894 13.2522C33.5591 13.4441 33.5721 13.63 33.5287 13.8321C33.4949 13.9851 33.4102 14.1501 33.212 14.3304L25.8045 20.7301L25.3473 21.1251L25.4843 21.7136L27.7036 31.2466C27.7037 31.2469 27.7037 31.2472 27.7038 31.2476C27.7614 31.498 27.7313 31.6582 27.6739 31.779C27.5715 31.9931 27.4341 32.1629 27.2569 32.3008C27.1161 32.4102 26.95 32.4787 26.7283 32.4971C26.5609 32.5111 26.3897 32.4757 26.1879 32.3473L26.1776 32.3408L26.167 32.3344L17.7925 27.2895Z" stroke="#4E78B8" stroke-width="2"/>
</svg>
