<svg width="15" height="17" viewBox="0 0 15 17" fill="none" xmlns="http://www.w3.org/2000/svg">
<path d="M1 17C0.716667 17 0.479 16.904 0.287 16.712C0.0956668 16.5207 0 16.2833 0 16V1C0 0.716667 0.0956668 0.479 0.287 0.287C0.479 0.0956668 0.716667 0 1 0H8.175C8.40833 0 8.61667 0.0749999 8.8 0.225C8.98333 0.375 9.1 0.566667 9.15 0.8L9.4 2H14C14.2833 2 14.5207 2.09567 14.712 2.287C14.904 2.479 15 2.71667 15 3V11C15 11.2833 14.904 11.5207 14.712 11.712C14.5207 11.904 14.2833 12 14 12H8.825C8.59167 12 8.38333 11.925 8.2 11.775C8.01667 11.625 7.9 11.4333 7.85 11.2L7.6 10H2V16C2 16.2833 1.90433 16.5207 1.713 16.712C1.521 16.904 1.28333 17 1 17ZM9.65 10H13V4H7.75L7.35 2H2V8H9.25L9.65 10Z" fill="#4E78B8"/>
</svg>
