<svg width="20" height="22" viewBox="0 0 20 22" fill="none" xmlns="http://www.w3.org/2000/svg">
<path d="M9.54194 11.6875C12.5557 11.6875 14.9945 9.22754 14.9945 6.1875V0L12.2682 1.375L9.54194 0L6.81567 1.375L4.0894 0V6.1875C4.0894 9.22969 6.53027 11.6875 9.54194 11.6875ZM6.13411 5.5H12.9498V6.1875C12.9498 8.08242 11.4205 9.625 9.54194 9.625C7.66337 9.625 6.13411 8.08242 6.13411 6.1875V5.5ZM11.7017 13.0625H7.38223C3.30603 13.0625 0 16.3969 0 20.509C0 21.334 0.66112 22 1.47645 22H17.6057C18.4236 22 19.0839 21.334 19.0839 20.509C19.0839 16.3969 15.7783 13.0625 11.7017 13.0625Z" fill="#4E78B8"/>
</svg>
