<?xml version="1.0" encoding="UTF-8"?>
<svg id="Layer_2" data-name="Layer 2" xmlns="http://www.w3.org/2000/svg" viewBox="0 0 24 24">
  <defs>
    <style>
      .cls-1 {
        fill: #fff;
      }

      .cls-1, .cls-2 {
        stroke-width: 0px;
      }

      .cls-2 {
        fill: #edab30;
      }
    </style>
  </defs>
  <g id="Layer_1-2" data-name="Layer 1">
    <path class="cls-2" d="m10,0h12c1.1,0,2,.9,2,2v12c0,5.52-4.48,10-10,10H2c-1.1,0-2-.9-2-2v-12C0,4.48,4.48,0,10,0Z"/>
    <path class="cls-1" d="m9.87,8.59v.43c0,1.18.95,2.13,2.13,2.13s2.13-.95,2.13-2.13v-.43h-4.26Zm0-2.9c.27.2.63.22.93.05l.8-.46c.12-.07.26-.11.4-.11s.28.04.4.11l.8.46c.29.17.66.15.93-.05h0s.02-.01.02-.02l.08-.06.42-.34c.07-.06.17-.09.27-.09h.06c.23,0,.43.19.43.43v.7h0v2.71c0,1.88-1.53,3.41-3.41,3.41s-3.41-1.53-3.41-3.41v-2.71h0v-.7c0-.23.19-.43.43-.43h.06c.1,0,.19.03.27.09l.42.33.08.06s.02.01.02.02h0s0,0,0,0Zm-3.83,12.05c0-2.47,2-4.47,4.47-4.47h2.98c2.47,0,4.47,2,4.47,4.47v.21c0,.47-.38.85-.85.85H6.89c-.47,0-.85-.38-.85-.85v-.21Z"/>
  </g>
</svg>