<svg width="20" height="17" viewBox="0 0 20 17" fill="none" xmlns="http://www.w3.org/2000/svg">
<path d="M2 16.5C1.45 16.5 0.979333 16.3043 0.588 15.913C0.196 15.521 0 15.05 0 14.5V2.5C0 1.95 0.196 1.47933 0.588 1.088C0.979333 0.696 1.45 0.5 2 0.5H14C14.55 0.5 15.021 0.696 15.413 1.088C15.8043 1.47933 16 1.95 16 2.5V7L19.15 3.85C19.3167 3.68333 19.5 3.64167 19.7 3.725C19.9 3.80833 20 3.96667 20 4.2V12.8C20 13.0333 19.9 13.1917 19.7 13.275C19.5 13.3583 19.3167 13.3167 19.15 13.15L16 10V14.5C16 15.05 15.8043 15.521 15.413 15.913C15.021 16.3043 14.55 16.5 14 16.5H2ZM2 14.5H14V2.5H2V14.5Z" fill="#6B8CBE"/>
</svg>
