<svg width="34" height="32" viewBox="0 0 34 32" fill="none" xmlns="http://www.w3.org/2000/svg">
<ellipse cx="16.8" cy="16" rx="16.8" ry="16" fill="white"/>
<g clip-path="url(#clip0_3087_43584)">
<path d="M16.5017 11.6542C14.3734 11.6542 12.6567 13.3712 12.6567 15.5C12.6567 17.6288 14.3734 19.3458 16.5017 19.3458C18.6299 19.3458 20.3466 17.6288 20.3466 15.5C20.3466 13.3712 18.6299 11.6542 16.5017 11.6542ZM16.5017 18.0003C15.1263 18.0003 14.002 16.879 14.002 15.5C14.002 14.121 15.123 12.9997 16.5017 12.9997C17.8804 12.9997 19.0014 14.121 19.0014 15.5C19.0014 16.879 17.877 18.0003 16.5017 18.0003ZM21.4007 11.4969C21.4007 11.9956 20.9992 12.3939 20.5039 12.3939C20.0053 12.3939 19.6071 11.9922 19.6071 11.4969C19.6071 11.0015 20.0086 10.5999 20.5039 10.5999C20.9992 10.5999 21.4007 11.0015 21.4007 11.4969ZM23.9473 12.4073C23.8904 11.2057 23.616 10.1413 22.7359 9.26436C21.8592 8.38743 20.795 8.11296 19.5937 8.05272C18.3555 7.98243 14.6445 7.98243 13.4063 8.05272C12.2083 8.10962 11.1442 8.38408 10.2641 9.26102C9.38399 10.138 9.11294 11.2023 9.0527 12.4039C8.98243 13.6424 8.98243 17.3543 9.0527 18.5927C9.10959 19.7943 9.38399 20.8587 10.2641 21.7356C11.1442 22.6126 12.205 22.887 13.4063 22.9473C14.6445 23.0176 18.3555 23.0176 19.5937 22.9473C20.795 22.8904 21.8592 22.6159 22.7359 21.7356C23.6127 20.8587 23.8871 19.7943 23.9473 18.5927C24.0176 17.3543 24.0176 13.6457 23.9473 12.4073ZM22.3477 19.9215C22.0867 20.5775 21.5814 21.083 20.9222 21.3474C19.935 21.739 17.5926 21.6486 16.5017 21.6486C15.4108 21.6486 13.065 21.7356 12.0811 21.3474C11.4253 21.0863 10.92 20.5809 10.6556 19.9215C10.2641 18.9341 10.3544 16.5912 10.3544 15.5C10.3544 14.4088 10.2674 12.0625 10.6556 11.0785C10.9166 10.4225 11.4219 9.91705 12.0811 9.65263C13.0683 9.26102 15.4108 9.35139 16.5017 9.35139C17.5926 9.35139 19.9384 9.26436 20.9222 9.65263C21.5781 9.9137 22.0834 10.4191 22.3477 11.0785C22.7393 12.0659 22.6489 14.4088 22.6489 15.5C22.6489 16.5912 22.7393 18.9375 22.3477 19.9215Z" fill="#383838" stroke="#383838" stroke-width="0.5"/>
</g>
<defs>
<clipPath id="clip0_3087_43584">
<rect width="16.8" height="16" fill="white" transform="translate(8 7.54688)"/>
</clipPath>
</defs>
</svg>
