<svg width="120" height="121" viewBox="0 0 120 121" fill="none" xmlns="http://www.w3.org/2000/svg">
<rect y="0.5" width="120" height="120" rx="23" fill="#4E78B8" />
<path d="M38.5714 30.5C33.8438 30.5 30 34.3438 30 39.0714V81.9286C30 86.6562 33.8438 90.5 38.5714 90.5H81.4286C86.1562 90.5 90 86.6562 90 81.9286V39.0714C90 34.3438 86.1562 30.5 81.4286 30.5H38.5714ZM56.7857 72.2857V63.7143H48.2143C46.433 63.7143 45 62.2812 45 60.5C45 58.7188 46.433 57.2857 48.2143 57.2857H56.7857V48.7143C56.7857 46.933 58.2188 45.5 60 45.5C61.7812 45.5 63.2143 46.933 63.2143 48.7143V57.2857H71.7857C73.567 57.2857 75 58.7188 75 60.5C75 62.2812 73.567 63.7143 71.7857 63.7143H63.2143V72.2857C63.2143 74.067 61.7812 75.5 60 75.5C58.2188 75.5 56.7857 74.067 56.7857 72.2857Z" fill="white"/>
</svg>
