<svg width="35" height="32" viewBox="0 0 35 32" fill="none" xmlns="http://www.w3.org/2000/svg">
<ellipse cx="17.6008" cy="16" rx="16.8" ry="16" fill="white"/>
<g clip-path="url(#clip0_3087_43592)">
<path d="M12.9581 12.5469H9.20117V23.5469H12.9581V12.5469Z" fill="#383838"/>
<path d="M23.1914 12.6759C23.1515 12.6639 23.1137 12.6509 23.0717 12.6399C23.0213 12.6289 22.9709 12.6199 22.9194 12.6119C22.7199 12.5739 22.5015 12.5469 22.2453 12.5469C20.055 12.5469 18.6659 14.0639 18.2081 14.6499V12.5469H14.4512V23.5469H18.2081V17.5469C18.2081 17.5469 21.0473 13.7809 22.2453 16.5469C22.2453 19.0159 22.2453 23.5469 22.2453 23.5469H26.0012V16.1239C26.0012 14.4619 24.8052 13.0769 23.1914 12.6759Z" fill="#383838"/>
<path d="M11.0387 11.0469C12.0535 11.0469 12.8762 10.2634 12.8762 9.29688C12.8762 8.33038 12.0535 7.54688 11.0387 7.54688C10.0238 7.54688 9.20117 8.33038 9.20117 9.29688C9.20117 10.2634 10.0238 11.0469 11.0387 11.0469Z" fill="#383838"/>
</g>
<defs>
<clipPath id="clip0_3087_43592">
<rect width="16.8" height="16" fill="white" transform="translate(9.20117 7.54688)"/>
</clipPath>
</defs>
</svg>
