<svg width="16" height="21" viewBox="0 0 16 21" fill="none" xmlns="http://www.w3.org/2000/svg">
<path d="M8 10.5C8.55 10.5 9.021 10.304 9.413 9.912C9.80433 9.52067 10 9.05 10 8.5C10 7.95 9.80433 7.479 9.413 7.087C9.021 6.69567 8.55 6.5 8 6.5C7.45 6.5 6.97933 6.69567 6.588 7.087C6.196 7.479 6 7.95 6 8.5C6 9.05 6.196 9.52067 6.588 9.912C6.97933 10.304 7.45 10.5 8 10.5ZM8 20.125C7.86667 20.125 7.73333 20.1 7.6 20.05C7.46667 20 7.35 19.9333 7.25 19.85C4.81667 17.7 3 15.7043 1.8 13.863C0.6 12.021 0 10.3 0 8.7C0 6.2 0.804333 4.20833 2.413 2.725C4.021 1.24167 5.88333 0.5 8 0.5C10.1167 0.5 11.979 1.24167 13.587 2.725C15.1957 4.20833 16 6.2 16 8.7C16 10.3 15.4 12.021 14.2 13.863C13 15.7043 11.1833 17.7 8.75 19.85C8.65 19.9333 8.53333 20 8.4 20.05C8.26667 20.1 8.13333 20.125 8 20.125Z" fill="#4E78B8"/>
</svg>
