<svg width="18" height="14" viewBox="0 0 18 14" fill="none" xmlns="http://www.w3.org/2000/svg">
<path d="M0 1.25C0 1.05109 0.0790178 0.860322 0.21967 0.71967C0.360322 0.579018 0.551088 0.5 0.75 0.5H12.75C12.9489 0.5 13.1397 0.579018 13.2803 0.71967C13.421 0.860322 13.5 1.05109 13.5 1.25C13.5 1.44891 13.421 1.63968 13.2803 1.78033C13.1397 1.92098 12.9489 2 12.75 2H0.75C0.551088 2 0.360322 1.92098 0.21967 1.78033C0.0790178 1.63968 0 1.44891 0 1.25ZM0 13.25C0 13.0511 0.0790178 12.8603 0.21967 12.7197C0.360322 12.579 0.551088 12.5 0.75 12.5H11.25C11.4489 12.5 11.6397 12.579 11.7803 12.7197C11.921 12.8603 12 13.0511 12 13.25C12 13.4489 11.921 13.6397 11.7803 13.7803C11.6397 13.921 11.4489 14 11.25 14H0.75C0.551088 14 0.360322 13.921 0.21967 13.7803C0.0790178 13.6397 0 13.4489 0 13.25ZM0.75 6.5C0.551088 6.5 0.360322 6.57902 0.21967 6.71967C0.0790178 6.86032 0 7.05109 0 7.25C0 7.44891 0.0790178 7.63968 0.21967 7.78033C0.360322 7.92098 0.551088 8 0.75 8H17.25C17.4489 8 17.6397 7.92098 17.7803 7.78033C17.921 7.63968 18 7.44891 18 7.25C18 7.05109 17.921 6.86032 17.7803 6.71967C17.6397 6.57902 17.4489 6.5 17.25 6.5H0.75Z" fill="black"/>
</svg>
