<svg width="22" height="22" viewBox="0 0 22 22" fill="none" xmlns="http://www.w3.org/2000/svg">
<path d="M19.2114 0H2.71143C1.19678 0 -0.0385742 1.23535 -0.0385742 2.71133V15.0477C-0.0385742 16.5623 1.19678 17.759 2.71143 17.759H6.83643V21.3675C6.83643 21.7901 7.30994 22.0357 7.65799 21.7843L13.0248 17.759H19.2123C20.7269 17.759 21.9623 16.5236 21.9623 15.0477V2.71133C21.9614 1.23535 20.7626 0 19.2114 0ZM19.9376 15.125C19.9376 15.501 19.6261 15.8125 19.2501 15.8125H12.3751L8.9376 18.3906V15.8125H2.7501C2.37412 15.8125 2.0626 15.501 2.0626 15.125V2.75C2.0626 2.37402 2.37412 2.0625 2.7501 2.0625H19.2501C19.6261 2.0625 19.9376 2.37402 19.9376 2.75V15.125Z" fill="#5976A4"/>
</svg>
