<svg width="18" height="18" viewBox="0 0 18 18" fill="none" xmlns="http://www.w3.org/2000/svg">
<path d="M8.99902 0C4.02793 0 -0.000976562 4.02891 -0.000976562 9C-0.000976562 13.9711 4.02793 18 8.99902 18C13.9701 18 17.999 13.9711 17.999 9C17.999 4.02891 13.9701 0 8.99902 0ZM8.15527 5.34375C8.15527 4.87969 8.53496 4.5 8.99902 4.5C9.46309 4.5 9.84277 4.87793 9.84277 5.34375V9.84375C9.84277 10.3096 9.46484 10.6875 8.99902 10.6875C8.5332 10.6875 8.15527 10.3113 8.15527 9.84375V5.34375ZM8.99902 14.0625C8.38871 14.0625 7.89371 13.5675 7.89371 12.9572C7.89371 12.3469 8.38836 11.8519 8.99902 11.8519C9.60969 11.8519 10.1043 12.3469 10.1043 12.9572C10.1029 13.5668 9.61074 14.0625 8.99902 14.0625Z" fill="#C6C6C6"/>
</svg>
