<svg width="120" height="121" viewBox="0 0 120 121" fill="none" xmlns="http://www.w3.org/2000/svg">
<rect y="0.5" width="120" height="120" rx="23" fill="#4E78B8"/>
<path d="M60 90.5C43.4297 90.5 30 77.0703 30 60.5C30 43.9297 43.4297 30.5 60 30.5C76.5703 30.5 90 43.9297 90 60.5C90 77.0703 76.5703 90.5 60 90.5ZM57.1875 44.5625V60.5C57.1875 61.4375 57.6562 62.3164 58.4414 62.8438L69.6914 70.3438C70.9805 71.2109 72.7266 70.8594 73.5938 69.5586C74.4609 68.2578 74.1094 66.5234 72.8086 65.6562L62.8125 59V44.5625C62.8125 43.0039 61.5586 41.75 60 41.75C58.4414 41.75 57.1875 43.0039 57.1875 44.5625Z" fill="white"/>
</svg>
