<svg width="120" height="121" viewBox="0 0 120 121" fill="none" xmlns="http://www.w3.org/2000/svg">
<rect y="0.5" width="120" height="120" rx="23" fill="#94C595"/>
<path d="M35 49.3895C35 46.3253 37.4913 43.834 40.5556 43.834H62.7778C65.842 43.834 68.3333 46.3253 68.3333 49.3895V71.6115C68.3333 74.6757 65.842 77.167 62.7778 77.167H40.5556C37.4913 77.167 35 74.6757 35 71.6115V49.3895ZM83.533 46.9416C84.4358 47.4277 85 48.3652 85 49.3895V71.6115C85 72.6358 84.4358 73.5733 83.533 74.0594C82.6302 74.5455 81.5365 74.4934 80.6771 73.9205L72.3438 68.365L71.1111 67.5404V66.056V54.945V53.4606L72.3438 52.636L80.6771 47.0805C81.5278 46.5163 82.6215 46.4555 83.533 46.9416Z" fill="white"/>
</svg>
