<svg width="35" height="34" viewBox="0 0 35 34" fill="none" xmlns="http://www.w3.org/2000/svg">
<path d="M17.2765 28.1461L8.90194 33.191C8.53198 33.4264 8.1452 33.5273 7.74161 33.4937C7.33802 33.4601 6.98488 33.3255 6.68218 33.0901C6.37949 32.8547 6.14406 32.5607 5.97589 32.2083C5.80773 31.8544 5.7741 31.4589 5.875 31.0217L8.09476 21.4868L0.678741 15.0798C0.342414 14.7771 0.132546 14.432 0.0491368 14.0446C-0.0356176 13.6585 -0.0107295 13.2804 0.123801 12.9105C0.258332 12.5405 0.460128 12.2378 0.72919 12.0024C0.998252 11.767 1.36821 11.6156 1.83907 11.5483L11.6262 10.6907L15.4099 1.71078C15.578 1.30719 15.839 1.00449 16.1928 0.802695C16.5453 0.600898 16.9065 0.5 17.2765 0.5C17.6464 0.5 18.0083 0.600898 18.3622 0.802695C18.7146 1.00449 18.9749 1.30719 19.1431 1.71078L22.9268 10.6907L32.7139 11.5483C33.1848 11.6156 33.5547 11.767 33.8238 12.0024C34.0928 12.2378 34.2946 12.5405 34.4292 12.9105C34.5637 13.2804 34.5893 13.6585 34.5059 14.0446C34.4211 14.432 34.2106 14.7771 33.8742 15.0798L26.4582 21.4868L28.678 31.0217C28.7789 31.4589 28.7452 31.8544 28.5771 32.2083C28.4089 32.5607 28.1735 32.8547 27.8708 33.0901C27.5681 33.3255 27.215 33.4601 26.8114 33.4937C26.4078 33.5273 26.021 33.4264 25.651 33.191L17.2765 28.1461Z" fill="#4E78B8"/>
</svg>
