<svg width="174" height="174" viewBox="0 0 174 174" fill="none" xmlns="http://www.w3.org/2000/svg">
<path d="M174 133.074H0V133.161H174V133.074Z" fill="#EBEBEB"/>
<path d="M60.2815 135.297H52.2148V135.384H60.2815V135.297Z" fill="#EBEBEB"/>
<path d="M159.653 137.16H139.932V137.247H159.653V137.16Z" fill="#EBEBEB"/>
<path d="M34.5883 137.16H14.8672V137.247H34.5883V137.16Z" fill="#EBEBEB"/>
<path d="M82.4758 117.555H15.2805C14.7541 117.554 14.2495 117.344 13.8776 116.972C13.5057 116.599 13.2969 116.094 13.2969 115.568V21.1103C13.3015 20.5869 13.5124 20.0865 13.8838 19.7177C14.2552 19.3489 14.7571 19.1415 15.2805 19.1406H82.4758C83.0028 19.1406 83.5082 19.35 83.8809 19.7226C84.2535 20.0953 84.4629 20.6007 84.4629 21.1277V115.568C84.4629 116.095 84.2535 116.6 83.8809 116.973C83.5082 117.346 83.0028 117.555 82.4758 117.555ZM15.2805 19.2102C14.7771 19.2111 14.2947 19.4117 13.9392 19.768C13.5836 20.1242 13.3839 20.607 13.3839 21.1103V115.568C13.3839 116.071 13.5836 116.554 13.9392 116.91C14.2947 117.267 14.7771 117.467 15.2805 117.468H82.4758C82.9792 117.466 83.4614 117.265 83.8173 116.909C84.1733 116.554 84.374 116.071 84.3759 115.568V21.1103C84.374 20.6069 84.1733 20.1247 83.8173 19.7688C83.4614 19.4128 82.9792 19.2121 82.4758 19.2102H15.2805Z" fill="#EBEBEB"/>
<path d="M157.752 117.555H90.5535C90.027 117.553 89.5227 117.343 89.1504 116.971C88.7782 116.599 88.5682 116.094 88.5664 115.568V21.1103C88.5719 20.5866 88.7836 20.0862 89.1555 19.7175C89.5275 19.3488 90.0298 19.1415 90.5535 19.1406H157.752C158.275 19.1424 158.776 19.3502 159.147 19.7189C159.517 20.0876 159.728 20.5875 159.732 21.1103V115.568C159.733 115.828 159.682 116.086 159.583 116.327C159.483 116.568 159.338 116.787 159.154 116.972C158.97 117.156 158.752 117.303 158.511 117.403C158.271 117.503 158.013 117.555 157.752 117.555ZM90.5535 19.2102C90.0501 19.2121 89.5679 19.4128 89.212 19.7688C88.856 20.1247 88.6552 20.6069 88.6534 21.1103V115.568C88.6552 116.071 88.856 116.554 89.212 116.909C89.5679 117.265 90.0501 117.466 90.5535 117.468H157.752C158.256 117.466 158.738 117.265 159.094 116.909C159.45 116.554 159.651 116.071 159.652 115.568V21.1103C159.651 20.6069 159.45 20.1247 159.094 19.7688C158.738 19.4128 158.256 19.2121 157.752 19.2102H90.5535Z" fill="#EBEBEB"/>
<path d="M52.8188 141.391C52.8188 141.391 59.65 137.563 60.1059 132.103C60.5618 126.643 55.1886 125.544 52.8188 123.633C50.4489 121.722 50.3619 119.989 50.2679 116.802C50.174 113.614 49.1752 110.242 45.6256 107.058C42.076 103.874 41.7071 102.687 42.1456 98.4065C42.5841 94.1261 39.6852 88.753 36.0417 89.6647C32.3981 90.5765 32.1267 96.3115 32.854 99.9551C33.5186 103.499 32.848 107.163 30.9713 110.242C29.2313 112.977 28.511 117.804 30.9713 120.901C33.4317 123.998 35.0708 126.73 33.8841 130.008C32.6974 133.287 29.0573 134.56 33.2472 141.391H52.8188Z" fill="#E6E6E6"/>
<path d="M113.013 141.328H124.761C124.761 141.328 125.854 131.675 125.673 123.841C125.492 116.008 125.036 103.622 120.105 103.984C115.174 104.346 109.553 117.01 113.013 141.328Z" fill="#F5F5F5"/>
<path d="M119.25 141.325C119.25 141.325 130.682 115.824 139.883 120.831C149.084 125.839 130.01 141.454 130.01 141.454L119.25 141.325Z" fill="#F0F0F0"/>
<path d="M117.875 141.456C117.875 141.456 118.627 133.156 115.505 124.669C112.384 116.181 108.514 111.097 104.143 112.736C99.7721 114.375 100.148 125.399 106.015 141.327L117.875 141.456Z" fill="#E6E6E6"/>
<path d="M124.762 141.327C124.762 141.327 129.738 133.532 132.484 126.164C135.23 118.797 135.856 113.288 133.358 111.931C130.859 110.574 119.124 123.283 117.875 141.456L124.762 141.327Z" fill="#E6E6E6"/>
<path d="M109.575 141.328C109.575 141.328 103.144 116.446 92.158 120.183C81.1716 123.921 100.858 141.457 100.858 141.457H110.129" fill="#F0F0F0"/>
<path d="M130.078 134.537C130.078 134.537 131.415 126.359 141.872 116.194C152.329 106.029 155.482 98.4912 153.617 88.2461C153.617 88.2461 163.159 101.644 156.986 118.115C150.812 134.586 141.232 140.105 133.37 142.273C125.509 144.441 130.078 134.537 130.078 134.537Z" fill="#EBEBEB" stroke="#EBEBEB" stroke-miterlimit="10"/>
<path d="M130.211 142.391C132.33 136.864 135.56 133.614 139.182 130.319C140.508 129.111 141.89 127.883 143.289 126.564C144.242 125.655 145.206 124.688 146.163 123.63C147.215 122.475 148.205 121.264 149.128 120.004V120.004C150.171 118.577 151.129 117.09 151.996 115.549C152.177 115.233 152.344 114.913 152.532 114.579C152.758 114.15 152.977 113.726 153.179 113.305C158.559 102.169 155.681 92.7102 154.125 89.0423C153.896 88.4829 153.634 87.9379 153.339 87.4102" stroke="#E0E0E0" stroke-width="2" stroke-miterlimit="10"/>
<path d="M149.807 106.973C151.646 108.615 152.842 110.857 153.182 113.299" stroke="#E0E0E0" stroke-width="2" stroke-miterlimit="10"/>
<path d="M149.131 120C149.034 117.599 146.911 114.102 145.672 112.254" stroke="#E0E0E0" stroke-width="2" stroke-miterlimit="10"/>
<path d="M139.826 118.277C140.797 119.812 142.819 123.309 143.289 126.563" stroke="#E0E0E0" stroke-width="2" stroke-miterlimit="10"/>
<path d="M139.199 130.321C139.199 130.321 145.223 129.384 150.071 130.975" stroke="#E0E0E0" stroke-width="2" stroke-miterlimit="10"/>
<path d="M155.419 121.91C151.327 121.444 146.309 123.574 146.166 123.63" stroke="#E0E0E0" stroke-width="2" stroke-miterlimit="10"/>
<path d="M158.515 112.648C155.195 113.212 152.111 115.464 152 115.544" stroke="#E0E0E0" stroke-width="2" stroke-miterlimit="10"/>
<path d="M86.9991 160.336C124.264 160.336 154.473 158.572 154.473 156.396C154.473 154.221 124.264 152.457 86.9991 152.457C49.7344 152.457 19.5254 154.221 19.5254 156.396C19.5254 158.572 49.7344 160.336 86.9991 160.336Z" fill="#F5F5F5"/>
<path opacity="0.12" d="M81.2981 62.4789C80.369 62.2249 80.3516 61.0312 80.3516 61.0312L81.2424 61.2087C81.1936 61.6324 81.2124 62.0611 81.2981 62.4789Z" fill="black"/>
<path d="M130.242 29.9455V80.1132C130.242 80.8571 129.947 81.5705 129.421 82.0965C128.895 82.6226 128.181 82.9181 127.438 82.9181H51.6258C50.8852 82.9135 50.1766 82.6158 49.6549 82.0902C49.1332 81.5646 48.8409 80.8538 48.8418 80.1132V29.9455C48.8409 29.2049 49.1332 28.4941 49.6549 27.9685C50.1766 27.4429 50.8852 27.1452 51.6258 27.1406H127.438C127.806 27.1406 128.171 27.2132 128.511 27.3541C128.851 27.4951 129.16 27.7017 129.421 27.9622C129.681 28.2226 129.888 28.5318 130.029 28.8721C130.17 29.2124 130.242 29.5772 130.242 29.9455Z" fill="#407BFF"/>
<path opacity="0.7" d="M130.242 29.9455V80.1132C130.242 80.8571 129.947 81.5705 129.421 82.0965C128.895 82.6226 128.181 82.9181 127.438 82.9181H51.6258C50.8852 82.9135 50.1766 82.6158 49.6549 82.0902C49.1332 81.5646 48.8409 80.8538 48.8418 80.1132V29.9455C48.8409 29.2049 49.1332 28.4941 49.6549 27.9685C50.1766 27.4429 50.8852 27.1452 51.6258 27.1406H127.438C127.806 27.1406 128.171 27.2132 128.511 27.3541C128.851 27.4951 129.16 27.7017 129.421 27.9622C129.681 28.2226 129.888 28.5318 130.029 28.8721C130.17 29.2124 130.242 29.5772 130.242 29.9455Z" fill="white" stroke="white" stroke-miterlimit="10"/>
<path d="M125.523 31.3541C125.94 31.3541 126.278 31.016 126.278 30.5989C126.278 30.1818 125.94 29.8438 125.523 29.8438C125.106 29.8438 124.768 30.1818 124.768 30.5989C124.768 31.016 125.106 31.3541 125.523 31.3541Z" fill="#407BFF"/>
<path d="M121.914 30.5989C121.914 30.7491 121.871 30.8961 121.788 31.0213C121.705 31.1465 121.586 31.2443 121.448 31.3023C121.309 31.3602 121.157 31.3758 121.009 31.3469C120.862 31.318 120.726 31.246 120.62 31.1401C120.513 31.0341 120.441 30.8989 120.411 30.7517C120.382 30.6044 120.397 30.4517 120.454 30.3129C120.511 30.1741 120.608 30.0554 120.733 29.9718C120.858 29.8883 121.005 29.8438 121.155 29.8438C121.355 29.8447 121.547 29.9244 121.689 30.0657C121.831 30.207 121.912 30.3986 121.914 30.5989Z" fill="#407BFF"/>
<path d="M117.547 30.5989C117.547 30.7491 117.503 30.8961 117.42 31.0213C117.337 31.1465 117.219 31.2443 117.081 31.3023C116.942 31.3602 116.789 31.3758 116.642 31.3469C116.495 31.318 116.359 31.246 116.253 31.1401C116.146 31.0341 116.074 30.8989 116.044 30.7517C116.015 30.6044 116.029 30.4517 116.087 30.3129C116.144 30.1741 116.241 30.0554 116.366 29.9718C116.491 29.8883 116.638 29.8438 116.788 29.8438C116.988 29.8447 117.18 29.9244 117.322 30.0657C117.464 30.207 117.545 30.3986 117.547 30.5989Z" fill="#407BFF"/>
<path d="M124.277 40.1291V90.2968C124.273 91.0367 123.976 91.7448 123.451 92.2664C122.926 92.788 122.216 93.0808 121.476 93.0808H45.6608C44.9208 93.0808 44.2109 92.788 43.686 92.2664C43.1611 91.7448 42.864 91.0367 42.8594 90.2968V40.1291C42.8594 39.3858 43.1544 38.6729 43.6797 38.147C44.2049 37.6211 44.9175 37.3251 45.6608 37.3242H121.476C122.219 37.3251 122.932 37.6211 123.457 38.147C123.982 38.6729 124.277 39.3858 124.277 40.1291Z" fill="#407BFF"/>
<path opacity="0.8" d="M124.277 40.1291V90.2968C124.273 91.0367 123.976 91.7448 123.451 92.2664C122.926 92.788 122.216 93.0808 121.476 93.0808H45.6608C44.9208 93.0808 44.2109 92.788 43.686 92.2664C43.1611 91.7448 42.864 91.0367 42.8594 90.2968V40.1291C42.8594 39.3858 43.1544 38.6729 43.6797 38.147C44.2049 37.6211 44.9175 37.3251 45.6608 37.3242H121.476C122.219 37.3251 122.932 37.6211 123.457 38.147C123.982 38.6729 124.277 39.3858 124.277 40.1291Z" fill="white"/>
<path d="M124.281 43.2109H106.119V89.1052H124.281V43.2109Z" fill="#407BFF"/>
<path opacity="0.2" d="M124.281 43.2109H106.119V89.1052H124.281V43.2109Z" fill="black"/>
<path d="M124.281 56.9961H106.119V57.5807H124.281V56.9961Z" fill="#FAFAFA"/>
<path d="M124.281 71.3984H106.119V71.9831H124.281V71.3984Z" fill="#FAFAFA"/>
<path d="M124.281 85.5898H106.119V86.1745H124.281V85.5898Z" fill="#FAFAFA"/>
<path d="M114.039 61.0117V67.8673L119.217 64.4395L114.039 61.0117Z" fill="#FAFAFA"/>
<path d="M114.039 75.3555V82.2146L119.217 78.7867L114.039 75.3555Z" fill="#FAFAFA"/>
<path d="M114.039 46.4141V53.2731L119.217 49.8419L114.039 46.4141Z" fill="#FAFAFA"/>
<path d="M69.4872 71.3984C69.4872 71.3984 64.8449 78.3202 63.3972 79.6948C63.3972 79.6948 55.616 80.3908 52.4144 78.2018L51.6035 80.1889C51.6035 80.1889 58.995 84.3649 64.0028 83.3453C69.0105 82.3256 72.7028 72.6582 72.7028 72.6582L69.4872 71.3984Z" fill="#B55B52"/>
<path d="M92.0492 67.2826C92.0492 67.2826 96.4862 68.4971 99.2528 68.7303C99.2528 68.7303 101.341 63.8827 101.689 59.4805L103.262 59.5675C103.262 59.5675 104.709 68.1422 100.913 71.6152C98.2889 74.0199 89.5332 69.5655 89.5332 69.5655L92.0492 67.2826Z" fill="#B55B52"/>
<path d="M79.5633 48.3713C79.5633 48.3713 73.5498 47.7901 72.9269 53.9184C72.5828 57.7216 73.1978 61.5503 74.7156 65.0544C74.7156 65.0544 78.3522 72.4563 82.7614 71.4263C87.1705 70.3962 90.9081 68.0089 90.1285 64.0139C89.349 60.0188 87.8979 60.1859 87.9501 54.6179C88.0023 49.0499 82.7788 45.8169 79.5633 48.3713Z" fill="#263238"/>
<path d="M86.1251 57.147C85.4952 60.2198 84.0928 61.4448 81.2531 61.2082C81.2043 61.6318 81.2231 62.0606 81.3088 62.4784C81.3795 62.979 81.6114 63.4431 81.9692 63.8003C82.3271 64.1576 82.7916 64.3886 83.2924 64.4585C85.7284 64.8796 84.3956 68.015 84.3956 68.015L81.9596 69.2122L78.7545 67.3643L76.3185 64.7647H77.1711C77.1711 64.7647 78.8206 62.2696 77.1711 58.0692C76.8104 57.858 76.5064 57.5624 76.2851 57.2078C76.0639 56.8532 75.932 56.4502 75.9009 56.0334C75.8313 54.6414 77.2685 54.5579 77.8114 55.0799C77.8114 55.0799 80.2857 54.0011 79.9168 49.832C79.9168 49.832 82.3528 51.6625 85.4848 51.1301C85.4813 51.1544 86.7515 54.0707 86.1251 57.147Z" fill="#B55B52"/>
<path d="M83.8887 54.5898L83.92 56.7405C84.0928 56.8071 84.2778 56.836 84.4627 56.8252C84.6476 56.8144 84.828 56.7641 84.9918 56.6778L83.8887 54.5898Z" fill="#A02724"/>
<path d="M80.5916 52.1735C80.571 52.1781 80.5496 52.1781 80.529 52.1735C80.5157 52.1653 80.5041 52.1546 80.495 52.1419C80.4859 52.1292 80.4793 52.1149 80.4758 52.0997C80.4722 52.0845 80.4717 52.0687 80.4743 52.0533C80.4768 52.0379 80.4824 52.0231 80.4907 52.0099C80.6526 51.7629 80.8946 51.5793 81.176 51.4899C81.4575 51.4005 81.7611 51.4109 82.0358 51.5192C82.0507 51.5239 82.0644 51.5316 82.0762 51.5417C82.088 51.5519 82.0976 51.5644 82.1045 51.5784C82.1113 51.5924 82.1152 51.6076 82.116 51.6232C82.1167 51.6387 82.1143 51.6543 82.1089 51.6689C82.0986 51.6983 82.0771 51.7225 82.0491 51.7362C82.0211 51.7499 81.9888 51.7519 81.9593 51.7419C81.7356 51.6502 81.4871 51.639 81.2561 51.71C81.0251 51.7811 80.8259 51.9302 80.6925 52.1317C80.6803 52.1463 80.6647 52.1577 80.6472 52.1649C80.6296 52.1722 80.6105 52.1751 80.5916 52.1735Z" fill="#263238"/>
<path d="M85.9803 52.8376C85.9495 52.8378 85.9198 52.8267 85.8967 52.8063C85.5487 52.4896 84.9432 52.7228 84.9363 52.7263C84.9067 52.7366 84.8743 52.7351 84.8458 52.7221C84.8172 52.7092 84.7948 52.6857 84.7831 52.6567C84.7776 52.6421 84.775 52.6265 84.7754 52.6108C84.7759 52.5952 84.7795 52.5798 84.786 52.5656C84.7925 52.5514 84.8017 52.5385 84.8132 52.5279C84.8246 52.5172 84.8381 52.509 84.8527 52.5036C84.8806 52.5036 85.6149 52.2147 86.0603 52.6323C86.0824 52.6545 86.0948 52.6845 86.0948 52.7158C86.0948 52.7471 86.0824 52.7772 86.0603 52.7994C86.0392 52.8215 86.0107 52.8351 85.9803 52.8376Z" fill="#263238"/>
<path d="M82.972 57.7666C82.5668 57.7836 82.1643 57.6934 81.8051 57.5052C81.4458 57.317 81.1425 57.0375 80.9257 56.6948C80.9197 56.6747 80.9208 56.6532 80.9288 56.6339C80.9368 56.6146 80.9513 56.5986 80.9698 56.5888C80.9882 56.5789 81.0096 56.5758 81.0301 56.5799C81.0506 56.584 81.0691 56.5951 81.0823 56.6113C81.2847 56.9256 81.5661 57.1814 81.8983 57.353C82.2305 57.5246 82.6019 57.606 82.9755 57.5891C82.9985 57.5891 83.0207 57.5983 83.037 57.6146C83.0533 57.6309 83.0625 57.6531 83.0625 57.6761C83.0625 57.7001 83.0529 57.7232 83.036 57.7401C83.019 57.7571 82.996 57.7666 82.972 57.7666Z" fill="#263238"/>
<path d="M82.3508 54.2217C82.3508 54.4792 82.2221 54.688 82.0481 54.695C81.8741 54.7019 81.7279 54.4966 81.721 54.2391C81.714 53.9816 81.8462 53.7728 82.0202 53.7658C82.1942 53.7588 82.3439 53.9642 82.3508 54.2217Z" fill="#263238"/>
<path d="M85.4445 54.249C85.4445 54.5031 85.3157 54.7153 85.1417 54.7223C84.9677 54.7293 84.8215 54.5239 84.8111 54.2664C84.8007 54.0089 84.9399 53.8001 85.1139 53.7931C85.2879 53.7862 85.4375 53.9915 85.4445 54.249Z" fill="#263238"/>
<path d="M81.9707 53.777L82.7607 53.5508C82.7607 53.5508 82.618 53.9753 81.9707 53.777Z" fill="#263238"/>
<path d="M85.1133 53.7945L85.6944 53.7109C85.6704 53.7643 85.6332 53.8107 85.5864 53.8459C85.5396 53.881 85.4847 53.9039 85.4268 53.9122C85.3688 53.9205 85.3097 53.9141 85.2549 53.8935C85.2001 53.8729 85.1514 53.8389 85.1133 53.7945Z" fill="#263238"/>
<path d="M93.5522 67.1414L90.8273 73.141L89.3796 72.6155C89.3796 72.6155 89.5258 83.5079 88.3356 89.1037H74.172L73.3577 74.2372L72.6165 75.7892L67.3965 72.8591C67.3965 72.8591 68.8407 66.9431 71.0957 65.8991C72.171 65.4014 74.4644 65.0186 76.8238 64.7716C78.9735 64.528 81.1369 64.4257 83.3001 64.4653C83.3001 64.4653 83.5228 64.4653 83.916 64.4653C87.2931 64.5916 90.5935 65.5082 93.5522 67.1414Z" fill="#407BFF"/>
<path d="M101.688 59.4804C101.151 58.7166 100.794 57.8409 100.644 56.9191C100.497 55.927 100.589 54.9141 100.912 53.9646L103.724 53.8672L104.072 56.3275C104.21 57.4695 103.924 58.6223 103.268 59.5674L101.688 59.4804Z" fill="#B55B52"/>
<path d="M52.4159 78.2017L50.9508 75.5882L49.1691 74.9688L47.9023 77.3352L49.0333 78.8872C49.0333 78.8872 50.5263 80.1539 51.6051 80.1887L52.4159 78.2017Z" fill="#B55B52"/>
<path d="M83.8989 64.4684C83.8745 68.2198 81.529 72.3297 81.529 72.3297C79.441 70.3148 77.353 65.9926 76.8066 64.7676C78.9564 64.5241 81.1198 64.4218 83.2829 64.4614C83.2829 64.4614 83.5196 64.4544 83.8989 64.4684Z" fill="#B55B52"/>
<path opacity="0.12" d="M72.6133 75.792L73.3441 71.7656L73.358 74.2434L72.6133 75.792Z" fill="black"/>
<path opacity="0.12" d="M90.8346 73.1419L88.4961 71.3984L89.387 72.6164L90.8346 73.1419Z" fill="black"/>
<path d="M75.428 137.926L78.7757 141.548L71.0084 148.937L68.2383 146.967L75.428 137.926Z" fill="#B55B52"/>
<path d="M71.6875 148.763C71.8754 149.891 72.1503 151.147 73.7511 153.353C74.0991 153.844 73.1735 154.763 72.126 153.792C71.0785 152.821 69.5751 151.297 68.8165 150.597C67.5811 149.452 67.0765 149.073 66.0708 148.182C66.0553 148.171 66.0412 148.158 66.029 148.144C65.9811 148.094 65.9435 148.035 65.9185 147.97C65.8934 147.906 65.8813 147.837 65.883 147.768C65.8846 147.699 65.8998 147.63 65.9279 147.567C65.956 147.504 65.9962 147.447 66.0464 147.399L68.2493 145.614C68.3 145.574 68.3637 145.555 68.4279 145.559C68.4922 145.564 68.5525 145.592 68.5973 145.638L71.4056 148.234C71.5534 148.376 71.6521 148.561 71.6875 148.763Z" fill="#263238"/>
<path d="M71.2653 148.699C71.2566 148.685 71.252 148.67 71.252 148.654C71.252 148.638 71.2566 148.622 71.2653 148.608C71.2758 148.601 71.2879 148.596 71.3006 148.595C71.3133 148.593 71.3262 148.594 71.3383 148.598C71.4984 148.65 72.9287 149.092 73.0783 149.531C73.0932 149.571 73.0974 149.615 73.0907 149.657C73.084 149.7 73.0666 149.74 73.0401 149.774C73.0017 149.83 72.9495 149.875 72.8885 149.905C72.8275 149.935 72.7599 149.949 72.6921 149.945C72.4114 149.886 72.1567 149.74 71.9647 149.527C71.7074 149.272 71.4733 148.995 71.2653 148.699ZM71.5332 148.803C72.01 149.409 72.4415 149.771 72.706 149.771C72.751 149.774 72.796 149.765 72.8364 149.744C72.8768 149.724 72.911 149.694 72.9357 149.656C72.9439 149.642 72.9483 149.625 72.9483 149.609C72.9483 149.592 72.9439 149.576 72.9357 149.562C72.9136 149.514 72.8816 149.471 72.8417 149.437C72.4418 149.158 72.0002 148.944 71.5332 148.803Z" fill="#407BFF"/>
<path d="M71.2448 148.668C71.2413 148.655 71.2413 148.641 71.245 148.628C71.2487 148.615 71.2558 148.604 71.2657 148.594C71.29 148.57 71.9199 147.992 72.4559 148.038C72.6159 148.05 72.7646 148.125 72.87 148.246C73.0196 148.417 72.9953 148.539 72.95 148.594C72.7517 148.904 71.7111 148.866 71.297 148.716L71.2692 148.699C71.2593 148.69 71.251 148.679 71.2448 148.668ZM72.4524 148.194C72.0894 148.229 71.7475 148.38 71.478 148.626C71.9373 148.734 72.696 148.702 72.8143 148.518C72.8143 148.518 72.8526 148.459 72.7551 148.347L72.7203 148.313C72.6468 148.244 72.5524 148.203 72.4524 148.194Z" fill="#407BFF"/>
<path d="M73.9082 144.543L78.4705 144.477L77.8371 155.943L74.5555 155.828L73.9082 144.543Z" fill="#B55B52"/>
<path d="M78.6091 155.098C79.5383 155.828 80.0011 156.597 82.6041 157.165C83.1853 157.293 83.2027 158.654 81.8281 158.644C80.4535 158.633 78.9884 158.511 78.0001 158.511C76.3819 158.511 75.7659 158.585 74.4853 158.585C74.4094 158.583 74.3346 158.567 74.265 158.537C74.1954 158.506 74.1325 158.463 74.0799 158.408C74.0272 158.353 73.9858 158.289 73.958 158.218C73.9303 158.148 73.9167 158.072 73.9181 157.996L74.1408 155.094C74.1444 155.032 74.1723 154.974 74.2186 154.932C74.2648 154.89 74.3257 154.868 74.3879 154.871L78.0732 154.896C78.2687 154.905 78.4563 154.975 78.6091 155.098Z" fill="#263238"/>
<path d="M76.4714 84.9922C76.0746 92.1088 85.4289 113.382 86.4729 120.836C83.2504 128.322 74.8184 137.864 74.8184 137.864L78.8134 142.221C78.8134 142.221 92.803 129.752 93.5303 121.062C94.1358 113.633 88.881 85.7056 88.881 85.7056L76.4714 84.9922Z" fill="#407BFF"/>
<path d="M76.4714 84.9922C76.0746 92.1088 85.4289 113.382 86.4729 120.836C83.2504 128.322 74.8184 137.864 74.8184 137.864L78.8134 142.221C78.8134 142.221 92.803 129.752 93.5303 121.062C94.1358 113.633 88.881 85.7056 88.881 85.7056L76.4714 84.9922Z" fill="#263238"/>
<path d="M74.9229 136.848L80.1499 141.81L78.7405 142.694L73.959 138.393L74.9229 136.848Z" fill="#407BFF"/>
<path opacity="0.3" d="M79.4824 98.5029C81.6748 105.275 84.4867 112.649 85.8021 117.685C86.0422 112.207 85.8578 102.449 82.0263 97.1527C80.2376 94.6575 79.5311 95.8999 79.4824 98.5029Z" fill="black"/>
<path d="M74.0889 85.0742C71.371 92.5597 73.4869 109.459 73.633 121.569C72.8187 130.697 73.908 144.537 73.908 144.537L78.8147 144.739C78.8147 144.739 80.2938 128.404 81.303 118.211C82.159 109.629 85.2145 85.4988 85.2145 85.4988L74.0889 85.0742Z" fill="#407BFF"/>
<path d="M73.9343 84.8164C71.2165 92.2984 73.4854 109.462 73.6316 121.572C72.8173 130.7 73.9065 144.54 73.9065 144.54L78.8133 144.742C78.8133 144.742 80.2923 128.407 81.3015 118.214C82.1576 109.632 85.213 85.502 85.213 85.502L73.9343 84.8164Z" fill="#263238"/>
<path d="M73.1934 143.336L79.5548 143.513L79.1616 145.281L73.5379 145.441L73.1934 143.336Z" fill="#407BFF"/>
<path d="M79.8366 155.325C79.5442 155.607 78.7926 155.471 78.3471 155.37C78.3319 155.366 78.3182 155.357 78.3072 155.345C78.2963 155.334 78.2885 155.32 78.2845 155.304C78.2818 155.29 78.2833 155.275 78.2889 155.261C78.2945 155.248 78.3038 155.236 78.3158 155.228C78.4202 155.155 79.3598 154.532 79.767 154.695C79.8119 154.714 79.851 154.745 79.8803 154.784C79.9096 154.823 79.9281 154.869 79.934 154.918C79.9492 154.977 79.9508 155.04 79.9387 155.1C79.9267 155.16 79.9013 155.217 79.8644 155.266C79.8619 155.288 79.8521 155.309 79.8366 155.325ZM78.5629 155.242C79.1405 155.36 79.5686 155.343 79.7252 155.2C79.7583 155.163 79.7809 155.118 79.7907 155.07C79.8005 155.022 79.7971 154.972 79.7809 154.925C79.7809 154.903 79.7742 154.882 79.7618 154.864C79.7494 154.846 79.7317 154.832 79.7113 154.824C79.506 154.734 78.9491 155.008 78.5629 155.252V155.242Z" fill="#407BFF"/>
<path d="M78.4027 155.346C78.3906 155.351 78.3776 155.354 78.3644 155.354C78.3512 155.354 78.3382 155.351 78.3261 155.346C78.3145 155.338 78.3044 155.329 78.2967 155.317C78.2889 155.306 78.2835 155.293 78.2809 155.28C78.2809 155.238 78.2252 154.295 78.5558 153.982C78.5977 153.94 78.649 153.909 78.7053 153.892C78.7617 153.874 78.8214 153.87 78.8794 153.881C78.9427 153.883 79.0035 153.906 79.053 153.945C79.1025 153.984 79.138 154.039 79.1544 154.1C79.1551 154.264 79.1231 154.427 79.0604 154.579C78.9977 154.73 78.9054 154.868 78.789 154.984C78.6804 155.124 78.55 155.247 78.4027 155.346ZM78.4305 155.13C78.7298 154.883 79.0639 154.354 79.0047 154.128C78.998 154.098 78.9803 154.072 78.9552 154.054C78.9301 154.037 78.8993 154.03 78.869 154.034C78.8325 154.027 78.7948 154.029 78.7595 154.041C78.7242 154.052 78.6924 154.073 78.6672 154.1L78.6358 154.135C78.4764 154.441 78.4053 154.786 78.4305 155.13Z" fill="#407BFF"/>
<path d="M77.1967 63.9531H75.9961V71.0245H77.1967V63.9531Z" fill="#FAFAFA"/>
<path d="M74.3842 63.9531H73.1836V71.0245H74.3842V63.9531Z" fill="#FAFAFA"/>
<path d="M80.5472 69.1092C81.278 66.0275 79.3721 62.937 76.2904 62.2063C73.2088 61.4756 70.1182 63.3814 69.3875 66.4631C68.6568 69.5448 70.5626 72.6353 73.6443 73.366C76.726 74.0967 79.8165 72.1909 80.5472 69.1092Z" stroke="#FAFAFA" stroke-width="0.996895" stroke-miterlimit="10"/>
<path d="M124.278 40.1291V43.2124H42.8457V40.1291C42.8457 39.3858 43.1407 38.6729 43.666 38.147C44.1913 37.6211 44.9038 37.3251 45.6471 37.3242H121.476C122.22 37.3251 122.932 37.6211 123.457 38.147C123.983 38.6729 124.278 39.3858 124.278 40.1291Z" fill="#407BFF"/>
<path d="M124.277 89.1055V90.2956C124.273 91.0356 123.976 91.7437 123.451 92.2653C122.926 92.7869 122.216 93.0796 121.476 93.0796H45.6608C44.9208 93.0796 44.2109 92.7869 43.686 92.2653C43.1611 91.7437 42.864 91.0356 42.8594 90.2956V89.1055H124.277Z" fill="#407BFF"/>
<path d="M58.9357 41.7935H47.0411C46.6993 41.7935 46.3714 41.658 46.1294 41.4166C45.8874 41.1752 45.7509 40.8477 45.75 40.5059C45.75 40.1635 45.886 39.8351 46.1282 39.593C46.3703 39.3509 46.6987 39.2148 47.0411 39.2148H58.9357C59.1053 39.2148 59.2732 39.2482 59.4298 39.3131C59.5864 39.378 59.7288 39.4731 59.8487 39.593C59.9685 39.7129 60.0636 39.8552 60.1285 40.0118C60.1934 40.1685 60.2268 40.3364 60.2268 40.5059C60.2259 40.8477 60.0895 41.1752 59.8474 41.4166C59.6054 41.658 59.2775 41.7935 58.9357 41.7935Z" stroke="white" stroke-width="0.5" stroke-miterlimit="10"/>
<path d="M65.3948 41.7935H63.6548C63.3133 41.7935 62.9858 41.6579 62.7443 41.4164C62.5028 41.1749 62.3672 40.8474 62.3672 40.5059V40.5059C62.3672 40.1641 62.5027 39.8362 62.7441 39.5942C62.9855 39.3522 63.313 39.2158 63.6548 39.2148H65.3948C65.7372 39.2148 66.0656 39.3509 66.3077 39.593C66.5498 39.8351 66.6859 40.1635 66.6859 40.5059V40.5059C66.6849 40.8477 66.5485 41.1752 66.3065 41.4166C66.0645 41.658 65.7366 41.7935 65.3948 41.7935Z" stroke="white" stroke-width="0.5" stroke-miterlimit="10"/>
<path d="M99.1761 44.793H49.9898C47.0992 44.793 44.7559 47.1363 44.7559 50.0269V82.544C44.7559 85.4346 47.0992 87.7779 49.9898 87.7779H99.1761C102.067 87.7779 104.41 85.4346 104.41 82.544V50.0269C104.41 47.1363 102.067 44.793 99.1761 44.793Z" stroke="white" stroke-width="0.5" stroke-miterlimit="10"/>
<path d="M63.0812 48.5039H42.0585C40.4729 48.5039 39.1875 49.7893 39.1875 51.3749V58.8639C39.1875 60.4495 40.4729 61.7349 42.0585 61.7349H63.0812C64.6668 61.7349 65.9522 60.4495 65.9522 58.8639V51.3749C65.9522 49.7893 64.6668 48.5039 63.0812 48.5039Z" fill="#407BFF"/>
<path d="M66.9759 50.7646V59.4646C66.9782 59.7616 66.9218 60.0561 66.8099 60.3313C66.698 60.6064 66.5329 60.8568 66.324 61.0679C66.1151 61.2791 65.8666 61.4469 65.5927 61.5617C65.3187 61.6765 65.0248 61.7361 64.7278 61.737H56.6646C54.2286 62.5792 55.7529 65.9513 55.8051 66.0731C55.3412 65.9143 54.9072 65.679 54.5209 65.3771C52.7809 63.9851 53.0245 61.7405 53.0245 61.7405H42.4558C41.8568 61.7405 41.2823 61.5025 40.8588 61.079C40.4352 60.6554 40.1973 60.081 40.1973 59.482V50.782C40.1973 50.183 40.4352 49.6085 40.8588 49.1849C41.2823 48.7614 41.8568 48.5234 42.4558 48.5234H64.7278C65.3223 48.5253 65.8919 48.7617 66.313 49.1814C66.734 49.6011 66.9722 50.1701 66.9759 50.7646Z" fill="#407BFF"/>
<path opacity="0.2" d="M65.9487 50.7642V59.4642C65.951 59.7626 65.894 60.0586 65.7811 60.3349C65.6681 60.6112 65.5015 60.8623 65.2907 61.0737C65.08 61.2851 64.8294 61.4525 64.5534 61.5663C64.2775 61.6801 63.9817 61.738 63.6832 61.7366H55.6375C53.8557 62.3491 54.1898 64.3118 54.5204 65.3732C52.7804 63.9812 53.024 61.7366 53.024 61.7366H41.4425C41.1461 61.7366 40.8526 61.6782 40.5788 61.5646C40.305 61.4511 40.0562 61.2846 39.8468 61.0749C39.6373 60.8651 39.4713 60.6161 39.3582 60.3421C39.245 60.0681 39.187 59.7745 39.1875 59.4781V50.7781C39.187 50.4816 39.245 50.188 39.3582 49.914C39.4713 49.64 39.6373 49.391 39.8468 49.1813C40.0562 48.9715 40.305 48.8051 40.5788 48.6915C40.8526 48.578 41.1461 48.5196 41.4425 48.5196H63.6832C63.9794 48.5182 64.2729 48.5752 64.547 48.6872C64.8211 48.7993 65.0705 48.9642 65.2808 49.1727C65.4912 49.3811 65.6585 49.6289 65.7731 49.902C65.8877 50.1751 65.9473 50.468 65.9487 50.7642Z" fill="white"/>
<path d="M63.8642 50.6055H41.1328V51.8096H63.8642V50.6055Z" fill="#407BFF"/>
<path d="M63.8642 52.8164H41.1328V54.0205H63.8642V52.8164Z" fill="#407BFF"/>
<path d="M63.8642 55.0312H41.1328V56.2353H63.8642V55.0312Z" fill="#407BFF"/>
<path opacity="0.1" d="M63.8642 50.6055H41.1328V51.8096H63.8642V50.6055Z" fill="black"/>
<path opacity="0.1" d="M63.8642 52.8164H41.1328V54.0205H63.8642V52.8164Z" fill="black"/>
<path opacity="0.1" d="M63.8642 55.0312H41.1328V56.2353H63.8642V55.0312Z" fill="black"/>
</svg>
