<svg width="34" height="32" viewBox="0 0 34 32" fill="none" xmlns="http://www.w3.org/2000/svg">
<ellipse cx="17.2004" cy="16" rx="16.8" ry="16" fill="white"/>
<g clip-path="url(#clip0_3087_43588)">
<path d="M25.6008 10.5859C24.976 10.8469 24.3103 11.0199 23.6163 11.1039C24.3303 10.6979 24.8752 10.0599 25.1314 9.29087C24.4657 9.66887 23.7307 9.93588 22.9474 10.0849C22.3153 9.44388 21.4144 9.04688 20.4316 9.04688C18.5248 9.04688 16.9897 10.5209 16.9897 12.3279C16.9897 12.5879 17.0128 12.8379 17.0695 13.0759C14.2062 12.9429 11.6725 11.6359 9.97048 9.64488C9.67333 10.1359 9.49903 10.6979 9.49903 11.3029C9.49903 12.4389 10.1133 13.4459 11.0289 14.0289C10.4755 14.0189 9.93268 13.8659 9.47278 13.6249C9.47278 13.6349 9.47278 13.6479 9.47278 13.6609C9.47278 15.2549 10.6666 16.5789 12.2322 16.8839C11.9518 16.9569 11.6463 16.9919 11.3292 16.9919C11.1087 16.9919 10.8861 16.9799 10.6771 16.9359C11.1234 18.2349 12.3897 19.1899 13.8954 19.2209C12.7236 20.0939 11.2357 20.6199 9.62503 20.6199C9.34258 20.6199 9.07168 20.6079 8.80078 20.5749C10.3264 21.5119 12.1345 22.0469 14.0844 22.0469C20.4222 22.0469 23.8872 17.0469 23.8872 12.7129C23.8872 12.5679 23.8819 12.4279 23.8746 12.2889C24.5581 11.8269 25.1325 11.2499 25.6008 10.5859Z" fill="#383838"/>
</g>
<defs>
<clipPath id="clip0_3087_43588">
<rect width="16.8" height="16" fill="white" transform="translate(8.80078 7.54688)"/>
</clipPath>
</defs>
</svg>
