<svg width="20" height="16" viewBox="0 0 20 16" fill="none" xmlns="http://www.w3.org/2000/svg">
<path d="M2 16C1.45 16 0.979333 15.8043 0.588 15.413C0.196 15.021 0 14.55 0 14V2C0 1.45 0.196 0.979333 0.588 0.588C0.979333 0.196 1.45 0 2 0H14C14.55 0 15.021 0.196 15.413 0.588C15.8043 0.979333 16 1.45 16 2V6.5L19.15 3.35C19.3167 3.18333 19.5 3.14167 19.7 3.225C19.9 3.30833 20 3.46667 20 3.7V12.3C20 12.5333 19.9 12.6917 19.7 12.775C19.5 12.8583 19.3167 12.8167 19.15 12.65L16 9.5V14C16 14.55 15.8043 15.021 15.413 15.413C15.021 15.8043 14.55 16 14 16H2ZM2 14H14V2H2V14Z" fill="#4E78B8"/>
</svg>
