<svg width="20" height="20" viewBox="0 0 20 20" fill="none" xmlns="http://www.w3.org/2000/svg">
<path d="M2 19.5C1.45 19.5 0.979333 19.3043 0.588 18.913C0.196 18.521 0 18.05 0 17.5V6.5C0 5.95 0.196 5.47933 0.588 5.088C0.979333 4.696 1.45 4.5 2 4.5H6V2.5C6 1.95 6.196 1.479 6.588 1.087C6.97933 0.695667 7.45 0.5 8 0.5H12C12.55 0.5 13.021 0.695667 13.413 1.087C13.8043 1.479 14 1.95 14 2.5V4.5H18C18.55 4.5 19.021 4.696 19.413 5.088C19.8043 5.47933 20 5.95 20 6.5V17.5C20 18.05 19.8043 18.521 19.413 18.913C19.021 19.3043 18.55 19.5 18 19.5H2ZM8 4.5H12V2.5H8V4.5Z" fill="#4E78B8"/>
</svg>
