<svg width="24" height="24" viewBox="0 0 24 24" fill="none" xmlns="http://www.w3.org/2000/svg">
<mask id="mask0_3269_160439" style="mask-type:alpha" maskUnits="userSpaceOnUse" x="0" y="0" width="24" height="24">
<rect width="24" height="24" fill="#D9D9D9"/>
</mask>
<g mask="url(#mask0_3269_160439)">
<path d="M13.3 17.2758C13.1 17.0758 13.004 16.8341 13.012 16.5508C13.0207 16.2674 13.125 16.0258 13.325 15.8258L16.15 13.0008H5C4.71667 13.0008 4.479 12.9048 4.287 12.7128C4.09567 12.5214 4 12.2841 4 12.0008C4 11.7174 4.09567 11.4798 4.287 11.2878C4.479 11.0964 4.71667 11.0008 5 11.0008H16.15L13.3 8.15078C13.1 7.95078 13 7.71311 13 7.43778C13 7.16311 13.1 6.92578 13.3 6.72578C13.5 6.52578 13.7377 6.42578 14.013 6.42578C14.2877 6.42578 14.525 6.52578 14.725 6.72578L19.3 11.3008C19.4 11.4008 19.471 11.5091 19.513 11.6258C19.5543 11.7424 19.575 11.8674 19.575 12.0008C19.575 12.1341 19.5543 12.2591 19.513 12.3758C19.471 12.4924 19.4 12.6008 19.3 12.7008L14.7 17.3008C14.5167 17.4841 14.2877 17.5758 14.013 17.5758C13.7377 17.5758 13.5 17.4758 13.3 17.2758Z" fill="white"/>
</g>
</svg>
