<svg width="24" height="24" viewBox="0 0 24 24" fill="none" xmlns="http://www.w3.org/2000/svg">
<mask id="mask0_3269_160405" style="mask-type:alpha" maskUnits="userSpaceOnUse" x="0" y="0" width="24" height="24">
<rect width="24" height="24" transform="matrix(-1 0 0 1 24 0)" fill="#D9D9D9"/>
</mask>
<g mask="url(#mask0_3269_160405)">
<path d="M10.7 17.2758C10.9 17.0758 10.996 16.8341 10.988 16.5508C10.9793 16.2674 10.875 16.0258 10.675 15.8258L7.85 13.0008H19C19.2833 13.0008 19.521 12.9048 19.713 12.7128C19.9043 12.5214 20 12.2841 20 12.0008C20 11.7174 19.9043 11.4798 19.713 11.2878C19.521 11.0964 19.2833 11.0008 19 11.0008H7.85L10.7 8.15078C10.9 7.95078 11 7.71311 11 7.43778C11 7.16311 10.9 6.92578 10.7 6.72578C10.5 6.52578 10.2623 6.42578 9.987 6.42578C9.71233 6.42578 9.475 6.52578 9.275 6.72578L4.7 11.3008C4.6 11.4008 4.529 11.5091 4.487 11.6258C4.44567 11.7424 4.425 11.8674 4.425 12.0008C4.425 12.1341 4.44567 12.2591 4.487 12.3758C4.529 12.4924 4.6 12.6008 4.7 12.7008L9.3 17.3008C9.48333 17.4841 9.71233 17.5758 9.987 17.5758C10.2623 17.5758 10.5 17.4758 10.7 17.2758Z" fill="white"/>
</g>
</svg>
