<svg width="20" height="20" viewBox="0 0 20 20" fill="none" xmlns="http://www.w3.org/2000/svg">
<mask id="mask0_3269_111381" style="mask-type:alpha" maskUnits="userSpaceOnUse" x="0" y="0" width="20" height="20">
<rect width="20" height="20" fill="#D9D9D9"/>
</mask>
<g mask="url(#mask0_3269_111381)">
<path d="M5.22917 12.7292C5.07639 12.5764 5 12.3819 5 12.1458C5 11.9097 5.07639 11.7153 5.22917 11.5625L9.0625 7.72917C9.14583 7.64583 9.23611 7.58667 9.33333 7.55167C9.43056 7.51722 9.53472 7.5 9.64583 7.5C9.75694 7.5 9.86111 7.51722 9.95833 7.55167C10.0556 7.58667 10.1458 7.64583 10.2292 7.72917L14.0833 11.5833C14.2361 11.7361 14.3125 11.9236 14.3125 12.1458C14.3125 12.3681 14.2292 12.5625 14.0625 12.7292C13.9097 12.8819 13.7153 12.9583 13.4792 12.9583C13.2431 12.9583 13.0486 12.8819 12.8958 12.7292L9.64583 9.47917L6.375 12.75C6.22222 12.9028 6.03472 12.9792 5.8125 12.9792C5.59028 12.9792 5.39583 12.8958 5.22917 12.7292Z" fill="white"/>
</g>
</svg>
