<svg width="24" height="24" viewBox="0 0 24 24" fill="none" xmlns="http://www.w3.org/2000/svg">
<mask id="mask0_3269_111320" style="mask-type:alpha" maskUnits="userSpaceOnUse" x="0" y="0" width="24" height="24">
<rect width="24" height="24" fill="#D9D9D9"/>
</mask>
<g mask="url(#mask0_3269_111320)">
<path d="M10 19.5H15.7C15.4043 20.2391 14.8935 20.8725 14.2339 21.3182C13.5743 21.7639 12.7961 22.0014 12 22H4.99999C4.47466 22.0001 3.95445 21.8968 3.46909 21.6958C2.98372 21.4948 2.5427 21.2002 2.17124 20.8288C1.79978 20.4573 1.50515 20.0163 1.30418 19.5309C1.10321 19.0455 0.999852 18.5253 1 18V9.99998C1.00118 9.02591 1.35714 8.08562 2.00131 7.35496C2.64547 6.62429 3.53373 6.1533 4.49997 6.03004V14C4.49997 17.03 6.96996 19.5 10 19.5ZM18.5 6.24997H20.62C20.5585 6.15985 20.4882 6.0761 20.41 5.99999L17 2.58983C16.9264 2.51198 16.8422 2.44477 16.75 2.39014V4.49999C16.7522 4.96343 16.9373 5.40727 17.265 5.73498C17.5927 6.06269 18.0366 6.24777 18.5 6.24997ZM18.5 7.74998C17.6386 7.74832 16.8129 7.40537 16.2038 6.79624C15.5946 6.18711 15.2517 5.36143 15.25 4.49999V2H10C9.47468 1.99985 8.95447 2.10321 8.4691 2.30418C7.98373 2.50514 7.54271 2.79978 7.17125 3.17124C6.79978 3.5427 6.50514 3.98371 6.30417 4.46908C6.1032 4.95445 5.99983 5.47466 5.99998 5.99999V14C5.99984 14.5253 6.10321 15.0456 6.30419 15.5309C6.50516 16.0163 6.7998 16.4573 7.17126 16.8288C7.54273 17.2002 7.98374 17.4948 8.46911 17.6958C8.95448 17.8968 9.47469 18.0001 10 18H17C17.5253 18.0001 18.0455 17.8968 18.5309 17.6958C19.0163 17.4948 19.4573 17.2002 19.8287 16.8288C20.2002 16.4573 20.4948 16.0163 20.6958 15.5309C20.8968 15.0455 21.0001 14.5253 21 14V7.74998H18.5Z" fill="white"/>
</g>
</svg>
