<svg width="10" height="6" viewBox="0 0 10 6" fill="none" xmlns="http://www.w3.org/2000/svg">
<path d="M0.229166 5.72917C0.0763886 5.57639 0 5.38195 0 5.14583C0 4.90972 0.0763886 4.71528 0.229166 4.5625L4.0625 0.729167C4.14583 0.645834 4.23611 0.586667 4.33333 0.551667C4.43056 0.517222 4.53472 0.5 4.64583 0.5C4.75694 0.5 4.86111 0.517222 4.95833 0.551667C5.05556 0.586667 5.14583 0.645834 5.22917 0.729167L9.08333 4.58333C9.23611 4.73611 9.3125 4.92361 9.3125 5.14583C9.3125 5.36806 9.22917 5.5625 9.0625 5.72917C8.90972 5.88195 8.71528 5.95833 8.47917 5.95833C8.24306 5.95833 8.04861 5.88195 7.89583 5.72917L4.64583 2.47917L1.375 5.75C1.22222 5.90278 1.03472 5.97917 0.8125 5.97917C0.590278 5.97917 0.395833 5.89583 0.229166 5.72917Z" fill="white"/>
</svg>
