<svg width="24" height="24" viewBox="0 0 24 24" fill="none" xmlns="http://www.w3.org/2000/svg">
<mask id="mask0_3269_111399" style="mask-type:alpha" maskUnits="userSpaceOnUse" x="0" y="0" width="24" height="24">
<rect width="24" height="24" fill="#D9D9D9"/>
</mask>
<g mask="url(#mask0_3269_111399)">
<path d="M16.8788 14.0833C16.8788 14.3167 16.6921 14.5 16.4545 14.5C15.1733 14.5 14.1042 15.4333 13.9345 16.65C13.9091 16.85 13.7224 17 13.5188 17C13.2642 17 13.0606 16.775 13.0945 16.525C13.3152 15.05 14.52 13.8833 16.0303 13.6917V4.70833C16.0303 4.13333 15.5552 3.66667 14.9697 3.66667C14.3842 3.66667 13.9091 4.13333 13.9091 4.70833V10.75C13.9091 10.9833 13.7224 11.1667 13.4848 11.1667C13.2473 11.1667 13.0606 10.9833 13.0606 10.75V3.04167C13.0606 2.46667 12.5855 2 12 2C11.4145 2 10.9394 2.46667 10.9394 3.04167V10.75C10.9394 10.9833 10.7527 11.1667 10.5152 11.1667C10.2776 11.1667 10.0909 10.9833 10.0909 10.75V4.29167C10.0909 3.71667 9.61576 3.25 9.0303 3.25C8.44485 3.25 7.9697 3.71667 7.9697 4.29167V11.5833C7.9697 11.8167 7.78303 12 7.54545 12C7.30788 12 7.12121 11.8167 7.12121 11.5833V6.79167C7.12121 6.21667 6.64606 5.75 6.06061 5.75C5.47515 5.75 5 6.21667 5 6.79167V15.125C5 18.925 8.13091 22 12 22C15.8691 22 19 18.925 19 15.125V9.70833C19 9.13333 18.5248 8.66667 17.9394 8.66667C17.3539 8.66667 16.8788 9.13333 16.8788 9.70833V14.0833Z" fill="white"/>
</g>
</svg>
