<svg width="9" height="15" viewBox="0 0 9 15" fill="none" xmlns="http://www.w3.org/2000/svg">
<path d="M3.05497 7.50317L8.66644 1.89146C8.82095 1.73732 8.90595 1.53122 8.90595 1.31146C8.90595 1.09159 8.82095 0.88561 8.66644 0.731219L8.17473 0.239756C8.02046 0.0851219 7.81424 0 7.59448 0C7.37473 0 7.16875 0.0851219 7.01436 0.239756L0.333022 6.92098C0.178022 7.07585 0.0931435 7.2828 0.0937533 7.5028C0.0931435 7.72378 0.1779 7.93049 0.333022 8.08549L7.00814 14.7602C7.16253 14.9149 7.36851 15 7.58839 15C7.80814 15 8.01412 14.9149 8.16863 14.7602L8.66022 14.2688C8.98009 13.9489 8.98009 13.4282 8.66022 13.1084L3.05497 7.50317Z" fill="#CACACA"/>
</svg>
