<svg width="15" height="22" viewBox="0 0 15 22" fill="none" xmlns="http://www.w3.org/2000/svg">
<path d="M14.08 11.3624C14.08 10.9224 13.7435 10.5859 13.3035 10.5859C12.8635 10.5859 12.5271 10.9224 12.5271 11.3624C12.5271 14.3906 10.0682 16.8495 7.04 16.8495C4.01177 16.8495 1.55294 14.3906 1.55294 11.3624C1.55294 10.9224 1.21647 10.5859 0.776471 10.5859C0.336471 10.5859 0 10.9224 0 11.3624C0 14.9601 2.69177 17.9883 6.26353 18.3765V20.4471H3.44235C3.00235 20.4471 2.66588 20.7836 2.66588 21.2236C2.66588 21.6636 3.00235 22.0001 3.44235 22.0001H10.6376C11.0776 22.0001 11.4141 21.6636 11.4141 21.2236C11.4141 20.7836 11.0776 20.4471 10.6376 20.4471H7.81647V18.3765C11.3882 17.9883 14.08 14.9601 14.08 11.3624Z" fill="#31D27C"/>
<path d="M7.04013 0C4.65895 0 2.71777 1.94118 2.71777 4.32235V11.3365C2.71777 13.7435 4.65895 15.6588 7.04013 15.6847C9.4213 15.6847 11.3625 13.7435 11.3625 11.3624V4.32235C11.3625 1.94118 9.4213 0 7.04013 0Z" fill="#31D27C"/>
</svg>
