<svg width="23" height="28" viewBox="0 0 23 28" fill="none" xmlns="http://www.w3.org/2000/svg">
<path d="M6.53952 16.5872V13.0522L14.0337 20.5642C13.2647 21.0895 12.3367 21.3972 11.3383 21.3972C8.69219 21.3972 6.53952 19.2395 6.53952 16.5872Z" fill="white"/>
<path d="M3.62509 13.7115H4.58091C4.88784 13.7115 5.13694 13.9612 5.13694 14.2688V16.2275C5.13694 19.655 7.91903 22.4438 11.3389 22.4438C12.6328 22.4438 13.8352 22.0439 14.8305 21.362L16.2887 22.8236C15.1663 23.683 13.8266 24.2662 12.3726 24.4496V25.8373H16.6401C16.947 25.8373 17.1961 26.087 17.1961 26.3946V27.3521C17.1961 27.6597 16.947 27.9094 16.6401 27.9094H6.03715C5.73022 27.9094 5.48112 27.6597 5.48112 27.3521V26.3946C5.48112 26.087 5.73022 25.8373 6.03715 25.8373H10.305V24.4496C6.24761 23.9374 3.06934 20.3257 3.06934 16.2275V14.2688C3.06906 13.9609 3.31816 13.7115 3.62509 13.7115Z" fill="white"/>
<path d="M0.874414 3.11665C1.47104 2.51837 2.43992 2.51837 3.03654 3.11665L6.53952 6.62773V5.78284C6.53952 3.1303 8.69219 0.972656 11.3386 0.972656C13.985 0.972656 16.1377 3.1303 16.1377 5.78284V16.2476L17.4032 17.516C17.4914 17.1 17.5406 16.6694 17.5406 16.2275V14.2688C17.5406 13.9612 17.7897 13.7115 18.0966 13.7115H19.0521C19.3591 13.7115 19.6082 13.9612 19.6082 14.2688V16.2275C19.6082 17.2502 19.4063 18.2413 19.046 19.1626L21.8031 21.9258C22.4003 22.5243 22.4003 23.4949 21.8031 24.0934C21.5048 24.3924 21.1133 24.5421 20.7219 24.5421C20.3304 24.5421 19.9393 24.3924 19.6407 24.0934L0.874691 5.28405C0.27696 4.68549 0.27696 3.7152 0.874414 3.11665Z" fill="white"/>
</svg>
