<svg width="20" height="20" viewBox="0 0 20 20" fill="none" xmlns="http://www.w3.org/2000/svg">
<path d="M11.0008 10.0008C10.7174 10.0008 10.4801 9.90478 10.2888 9.71278C10.0968 9.52145 10.0008 9.28411 10.0008 9.00078V3.00078C10.0008 2.71745 10.0968 2.47978 10.2888 2.28778C10.4801 2.09645 10.7174 2.00078 11.0008 2.00078C11.2841 2.00078 11.5218 2.09645 11.7138 2.28778C11.9051 2.47978 12.0008 2.71745 12.0008 3.00078V6.60078L17.9008 0.700781C18.0841 0.517448 18.3174 0.425781 18.6008 0.425781C18.8841 0.425781 19.1174 0.517448 19.3008 0.700781C19.4841 0.884115 19.5758 1.11745 19.5758 1.40078C19.5758 1.68411 19.4841 1.91745 19.3008 2.10078L13.4008 8.00078H17.0008C17.2841 8.00078 17.5214 8.09645 17.7128 8.28778C17.9048 8.47978 18.0008 8.71745 18.0008 9.00078C18.0008 9.28411 17.9048 9.52145 17.7128 9.71278C17.5214 9.90478 17.2841 10.0008 17.0008 10.0008H11.0008ZM0.700781 19.3008C0.517448 19.1174 0.425781 18.8841 0.425781 18.6008C0.425781 18.3174 0.517448 18.0841 0.700781 17.9008L6.60078 12.0008H3.00078C2.71745 12.0008 2.47978 11.9048 2.28778 11.7128C2.09645 11.5214 2.00078 11.2841 2.00078 11.0008C2.00078 10.7174 2.09645 10.4798 2.28778 10.2878C2.47978 10.0964 2.71745 10.0008 3.00078 10.0008H9.00078C9.28411 10.0008 9.52178 10.0964 9.71378 10.2878C9.90512 10.4798 10.0008 10.7174 10.0008 11.0008V17.0008C10.0008 17.2841 9.90512 17.5214 9.71378 17.7128C9.52178 17.9048 9.28411 18.0008 9.00078 18.0008C8.71745 18.0008 8.48011 17.9048 8.28878 17.7128C8.09678 17.5214 8.00078 17.2841 8.00078 17.0008V13.4008L2.10078 19.3008C1.91745 19.4841 1.68411 19.5758 1.40078 19.5758C1.11745 19.5758 0.884115 19.4841 0.700781 19.3008Z" fill="white"/>
</svg>
