<svg width="24" height="24" viewBox="0 0 24 24" fill="none" xmlns="http://www.w3.org/2000/svg">
<mask id="mask0_3269_111395" style="mask-type:alpha" maskUnits="userSpaceOnUse" x="0" y="0" width="24" height="24">
<rect width="24" height="24" fill="#D9D9D9"/>
</mask>
<g mask="url(#mask0_3269_111395)">
<path d="M9 14C9.28333 14 9.521 13.904 9.713 13.712C9.90433 13.5207 10 13.2833 10 13V12C10 11.7167 10.096 11.479 10.288 11.287C10.4793 11.0957 10.7167 11 11 11H13V11.8C13 12.0333 13.1 12.1917 13.3 12.275C13.5 12.3583 13.6833 12.3167 13.85 12.15L15.65 10.35C15.6833 10.3167 15.7333 10.2 15.8 10C15.8 9.96667 15.75 9.85 15.65 9.65L13.85 7.85C13.6833 7.68333 13.5 7.64167 13.3 7.725C13.1 7.80833 13 7.96667 13 8.2V9H11C10.1667 9 9.45833 9.29167 8.875 9.875C8.29167 10.4583 8 11.1667 8 12V13C8 13.2833 8.096 13.5207 8.288 13.712C8.47933 13.904 8.71667 14 9 14ZM4 18C3.45 18 2.97933 17.8043 2.588 17.413C2.196 17.021 2 16.55 2 16V5C2 4.45 2.196 3.979 2.588 3.587C2.97933 3.19567 3.45 3 4 3H20C20.55 3 21.021 3.19567 21.413 3.587C21.8043 3.979 22 4.45 22 5V16C22 16.55 21.8043 17.021 21.413 17.413C21.021 17.8043 20.55 18 20 18H4ZM2 21C1.71667 21 1.47933 20.904 1.288 20.712C1.096 20.5207 1 20.2833 1 20C1 19.7167 1.096 19.4793 1.288 19.288C1.47933 19.096 1.71667 19 2 19H22C22.2833 19 22.5207 19.096 22.712 19.288C22.904 19.4793 23 19.7167 23 20C23 20.2833 22.904 20.5207 22.712 20.712C22.5207 20.904 22.2833 21 22 21H2Z" fill="white"/>
</g>
</svg>
