<svg width="18" height="19" viewBox="0 0 18 19" fill="none" xmlns="http://www.w3.org/2000/svg">
<path d="M11.5486 17.5687C11.4071 17.8986 11.1625 18.1018 10.8146 18.1782C10.4672 18.255 10.1638 18.1638 9.90454 17.9045L7.27057 15.2706C7.10558 15.1056 7.0054 14.9111 6.97005 14.6872C6.93469 14.4633 6.98183 14.2512 7.11147 14.0508L10.9652 7.65149L4.56588 11.5052C4.36554 11.6349 4.15341 11.682 3.92949 11.6466C3.70557 11.6113 3.51112 11.5111 3.34613 11.3461L0.712152 8.71215C0.45288 8.45288 0.361428 8.1493 0.437795 7.8014C0.514634 7.45397 0.718045 7.20955 1.04803 7.06813L16.5337 0.774879C16.9579 0.609888 17.3233 0.680598 17.6297 0.987011C17.9361 1.29342 18.0068 1.65876 17.8418 2.08303L11.5486 17.5687Z" fill="white"/>
</svg>
