<svg width="24" height="24" viewBox="0 0 24 24" fill="none" xmlns="http://www.w3.org/2000/svg">
<mask id="mask0_3269_111329" style="mask-type:alpha" maskUnits="userSpaceOnUse" x="0" y="0" width="24" height="24">
<rect width="24" height="24" fill="#D9D9D9"/>
</mask>
<g mask="url(#mask0_3269_111329)">
<path d="M21.375 15.521H2.625C2.29167 15.521 2 15.8127 2 16.146C2 16.5002 2.27083 16.771 2.625 16.771H10.7292L7.04167 20.6668C6.8125 20.9168 6.8125 21.3127 7.0625 21.5418C7.3125 21.771 7.70833 21.771 7.9375 21.521L11.375 17.896V21.3752C11.375 21.7293 11.6458 22.0002 12 22.0002C12.3542 22.0002 12.625 21.7293 12.625 21.3752V17.896L16.0625 21.521C16.2917 21.771 16.6875 21.7918 16.9375 21.5418C17.1875 21.3127 17.2083 20.9168 16.9583 20.6668L13.2708 16.771H21.375C21.7292 16.771 22 16.5002 22 16.146C22 15.7918 21.7292 15.521 21.375 15.521Z" fill="white"/>
<path d="M20.125 3.375H12.625V2.625C12.625 2.27083 12.3542 2 12 2C11.6458 2 11.375 2.27083 11.375 2.625V3.375H3.875C3.52083 3.375 3.25 3.64583 3.25 4V14.4792H20.75V4C20.75 3.64583 20.4792 3.375 20.125 3.375Z" fill="white"/>
</g>
</svg>
